<?xml version="1.0" encoding="utf-8"?>
<!-- Generator: Adobe Illustrator 18.0.0, SVG Export Plug-In . SVG Version: 6.00 Build 0)  -->
<!DOCTYPE svg PUBLIC "-//W3C//DTD SVG 1.1//EN" "http://www.w3.org/Graphics/SVG/1.1/DTD/svg11.dtd">
<svg version="1.1" id="Layer_1" xmlns="http://www.w3.org/2000/svg" xmlns:xlink="http://www.w3.org/1999/xlink" x="0px" y="0px"
	 viewBox="320 40 640 640" enable-background="new 320 40 640 640" xml:space="preserve">
<g>
	<path fill="#9ACA3C" d="M828.3,547c-0.4-0.4-52.6-39.2-70.9-70.6c-22-37.1-32.4-88.6-29.5-145.1c0-1.1,0-2.2-0.4-3.2l19.1-58.3
		c0-0.4,0-0.4,0-0.7c0-0.4,0.4-0.7,0.4-1.4c0-0.4,0-0.7,0-1.1c0-0.4,0-0.7,0-1.1s0-0.7,0-1.1c0-0.4,0-0.7-0.4-1.1
		c0-0.4-0.4-0.7-0.4-1.1c0-0.4-0.4-0.7-0.4-1.1s-0.4-0.7-0.4-1.1c-0.4-0.4-0.4-0.7-0.7-1.1c-0.4-0.4-0.4-0.7-0.7-1.1
		c0,0-0.4-0.4-0.4-0.7c0,0,0,0-0.4-0.4c-0.4-0.4-0.7-0.4-1.1-0.7c-0.4-0.4-0.7-0.4-1.1-0.7c-0.4-0.4-0.7-0.4-1.1-0.4
		c-0.4-0.4-0.7-0.4-1.1-0.4h-0.4c-0.4,0-0.4,0-0.7,0c-0.4,0-0.7-0.4-1.1-0.4c-0.4,0-0.7,0-1.1,0s-0.7,0-1.1,0s-0.7,0-1.1,0
		s-0.7,0-1.1,0.4c-0.4,0-0.7,0.4-1.1,0.4c-0.4,0-0.7,0.4-1.1,0.4c-0.4,0-0.7,0.4-1.1,0.7c-0.4,0-0.7,0.4-0.7,0.7
		c-0.4,0.4-0.7,0.7-1.1,0.7l-0.4,0.4c-70.9,72-173.2,1.8-177.5-1.4l0,0c-0.4,0-0.4-0.4-0.7-0.4c-0.4,0-0.7-0.4-1.1-0.4
		s-0.7-0.4-1.1-0.4c-0.4,0-0.7-0.4-1.1-0.4c-0.4,0-0.7,0-1.1-0.4c-0.4,0-0.7,0-1.1,0c-0.4,0-0.7,0-1.1,0c-0.4,0-0.7,0-1.1,0
		s-0.7,0-1.4,0.4c-0.4,0-0.4,0-0.7,0c0,0,0,0-0.4,0s-0.7,0.4-1.1,0.7c-0.4,0-0.7,0.4-0.7,0.4c-0.4,0.4-0.7,0.4-1.1,0.7
		c-0.4,0.4-0.7,0.4-0.7,0.7c-0.4,0.4-0.4,0.4-0.7,0.7c-0.7,0.4-1.1,0.7-1.1,1.1c0,0,0,0,0,0.4s-0.4,0.4-0.4,0.7
		c-0.4,0.4-0.4,0.7-0.7,1.1c0,0.4-0.4,0.7-0.4,1.1c0,0.4-0.4,0.7-0.4,1.1c0,0.4,0,0.7-0.4,1.1c0,0.4,0,0.7,0,1.1c0,0.4,0,0.7,0,1.1
		c0,0.4,0,0.7,0,1.1s0,0.7,0.4,1.1c0,0.4,0,0.4,0,0.7l19.1,58.3c-0.4,1.1-0.4,2.2-0.4,3.2c2.9,59.8-6.5,109.8-27,145.1
		c-18.4,31.3-70.2,69.8-70.9,70.6c-5,4-6.1,11.2-2.5,16.6c2.2,3.2,5.8,4.7,9.4,4.7c2.5,0,5-0.7,6.8-2.2c2.2-1.8,56.2-42.1,77-77.4
		c15.1-25.6,24.5-57.6,28.8-94.7l25.2,77l7.9,86.4c0.7,6.1,5.8,10.8,11.5,10.8c0.4,0,0.7,0,1.1,0c6.5-0.7,11.2-6.5,10.8-12.6
		l-7.9-87.8c0-0.7-0.4-1.8-0.4-2.5l-56.9-173.9c21.6,10.4,53.3,22,87.5,22c20.2,0,41.4-4.3,61.6-15.1l-55.1,168.1
		c-0.4,0.7-0.4,1.8-0.7,2.9l-7.2,88.6c-0.4,6.5,4.3,12.2,10.8,12.6c0.4,0,0.7,0,1.1,0c6.1,0,11.2-4.7,11.9-10.8l6.8-87.1l26.3-80.3
		c4.7,36.4,14.8,69.5,30.6,96.1c20.9,35.3,74.9,75.6,77,77.4c2.2,1.4,4.7,2.2,6.8,2.2c3.6,0,7.2-1.8,9.4-4.7
		C834.5,558.2,833.4,550.5,828.3,547z"/>
	<path fill="#9ACA3C" d="M591.8,261.6l29.2-19.1l67.3,27c1.4,0.7,2.9,0.7,4.3,0.7c4.7,0,9-2.9,10.8-7.2c2.5-6.1-0.4-13-6.5-15.5
		l-73-29.5c-3.6-1.4-7.6-1.1-10.8,1.1l-34.2,22.3c-5.4,3.6-6.8,10.8-3.2,16.2C579.2,263.7,586.4,265.2,591.8,261.6z"/>
	<path fill="#9ACA3C" d="M752.7,242.5c25.6,0,46.4-20.9,46.4-46.4s-20.9-46.4-46.4-46.4s-46.4,20.9-46.4,46.4
		S726.8,242.5,752.7,242.5z M752.7,173.4c12.6,0,23,10.4,23,23s-10.4,23-23,23s-23-10.4-23-23S740.1,173.4,752.7,173.4z"/>
	<path fill="#9ACA3C" d="M517.7,242.5c25.6,0,46.4-20.9,46.4-46.4s-20.9-46.4-46.4-46.4c-25.5,0-46.4,20.9-46.4,46.4
		S491.7,242.5,517.7,242.5z M517.7,173.4c12.6,0,23,10.4,23,23s-10.4,23-23,23c-12.6,0-23-10.4-23-23S504.7,173.4,517.7,173.4z"/>
</g>
</svg>
