<?xml version="1.0" encoding="utf-8"?>
<!-- Generator: Adobe Illustrator 18.0.0, SVG Export Plug-In . SVG Version: 6.00 Build 0)  -->
<!DOCTYPE svg PUBLIC "-//W3C//DTD SVG 1.1//EN" "http://www.w3.org/Graphics/SVG/1.1/DTD/svg11.dtd">
<svg version="1.1" id="Layer_1" xmlns="http://www.w3.org/2000/svg" xmlns:xlink="http://www.w3.org/1999/xlink" x="0px" y="0px"
	 viewBox="320 40 640 640" enable-background="new 320 40 640 640" xml:space="preserve">
<g>
	<path fill="#9ACA3C" d="M629.8,483.7c0,25.9,20.9,46.8,46.8,46.8c25.9,0,46.8-20.9,46.8-46.8s-20.9-46.8-46.8-46.8
		C650.7,436.9,629.8,458.2,629.8,483.7z M699.6,483.7c0,12.6-10.4,23-23,23s-23-10.4-23-23s10.4-23,23-23S699.6,471.1,699.6,483.7z"
		/>
	<path fill="#9ACA3C" d="M736.4,574.1H587c2.9,0,5.4-4.7,5.8-8.6c3.2-36.4,19.4-134.6,54-155.9c10.1-5,59.4-22.7,133.2,85
		c3.6,5.4,11.2,6.8,16.6,3.2c5.4-3.6,6.8-11.2,3.2-16.6c-64.8-94.3-117-103.3-145.4-98.6c-4.3-15.5-16.9-59.4-34.2-85.7
		c-0.7-1.1-1.4-1.8-2.2-2.5c22.3-18.4,39.6-49.3,28.4-163.4c-0.7-6.5-6.5-11.2-13-10.8c-6.5,0.7-11.2,6.5-10.8,13
		c11.9,119.9-9.7,135.7-24.1,146.2c-0.7,0.4-1.1,0.7-1.8,1.4c-46.1,12.6-131.8-36.4-161.6-56.5c-5.4-3.6-12.6-2.2-16.6,3.2
		c-3.6,5.4-2.2,12.6,3.2,16.6c4.3,2.9,92.9,62.6,158.4,62.6c6.1,0,11.9-0.7,17.6-1.8c0.4,1.8,0.7,3.6,1.8,5.4
		c16.2,24.5,28.8,69.8,31.7,81.4C583,425.9,570,549.4,568.9,563.8c-0.4,4.7,1.8,10.8,5.8,10.8H435.4c-6.5,0-11.9,6.1-11.9,12.6
		s5.4,12.6,11.9,12.6h301c6.5,0,11.9-6.1,11.9-12.6C748.2,580.2,743.2,574.1,736.4,574.1z"/>
	<path fill="#9ACA3C" d="M851.6,574.1h-67.7c-6.5,0-11.9,6.1-11.9,12.6s5.4,12.6,11.9,12.6h67.7c6.5,0,11.9-6.1,11.9-12.6
		C863.4,580.2,858,574.1,851.6,574.1z"/>
</g>
</svg>
