<?xml version="1.0" encoding="utf-8"?>
<!-- Generator: Adobe Illustrator 18.0.0, SVG Export Plug-In . SVG Version: 6.00 Build 0)  -->
<!DOCTYPE svg PUBLIC "-//W3C//DTD SVG 1.1//EN" "http://www.w3.org/Graphics/SVG/1.1/DTD/svg11.dtd">
<svg version="1.1" id="Layer_1" xmlns="http://www.w3.org/2000/svg" xmlns:xlink="http://www.w3.org/1999/xlink" x="0px" y="0px"
	 viewBox="320 40 640 640" enable-background="new 320 40 640 640" xml:space="preserve">
<g transform="translate(0 -540.36)">
	<g>
		<g>
			<path fill="#9ACA3C" d="M609.9,768.4L609.9,768.4c-5.4,0-10.1,4.3-10.1,10.1v51.1h-10.4c0-0.4,0-0.4,0-0.7v-0.4
				c-3.6-34.9-36.7-62.6-71.6-60.1c-5.4,0.4-9.7,5.4-9,10.8c0.4,5.4,5.4,9.7,10.8,9c23.4-1.8,47.2,17.6,50,41H467.7
				c-2.9,0-5.4,1.1-7.2,3.2c-1.8,2.2-2.9,5-2.5,7.6c1.8,16.9,10.8,33.1,24.5,44.3c11.9,9.7,26.6,15.1,41,15.1c2.2,0,4,0,6.1-0.4
				c27.7-2.9,51.1-24.1,58-50.4h12.6v40.3c0,5.4,4.3,10.1,10.1,10.1c5.4,0,10.1-4.3,10.1-10.1V777.8
				C620,773.1,615.3,768.4,609.9,768.4z M527.4,880c-10.8,1.1-22.7-2.5-32.4-10.4c-6.8-5.4-11.9-12.2-14.8-19.8h86.4
				C560.6,865.3,545.4,877.9,527.4,880z"/>
			<path fill="#9ACA3C" d="M804.6,988.8l-50-99c-1.8-3.2-5-5.4-9-5.4s-7.2,2.2-9,5.4l-50.8,101.5c-2.5,5-0.4,10.8,4.3,13.3
				c1.4,0.7,2.9,1.1,4.3,1.1c3.6,0,7.2-2.2,9-5.4l17.6-34.9h49.3l16.6,32.8c2.5,5,8.6,6.8,13.3,4.3
				C805,999.6,807.2,993.4,804.6,988.8L804.6,988.8z M731.2,945.2l14.4-28.8l14.8,28.8H731.2z"/>
			<path fill="#9ACA3C" d="M882.4,928.6c-4.7-31.3-20.2-60.5-43.2-82.1C812.6,821.7,778,808,742,808c-21.2,0-42.5,4.7-61.6,14
				c-8.6-71.6-69.1-125.6-141.1-125.6c-38.2,0-74.2,14.8-101.2,41.8S396,800.8,396,839.4c0,38.2,14.8,74.2,42.1,101.2
				c27,27,63,41.8,101.2,41.8c21.2,0,41.8-4.7,60.8-13.7c6.8,58,49.3,106.6,105.8,121.7c11.5,2.9,23,4.3,34.6,4.3
				c52.6,0,100.4-28.4,125.6-74.2C881.3,992.4,887.1,960,882.4,928.6z M847.1,1009.6c-21.2,38.9-62.3,63-106.6,63
				c-9.7,0-19.8-1.1-29.2-3.6c-51.1-13.7-88.2-59.8-90.4-112.7c36.4-25.6,58.3-65.5,60.5-109.8c18.4-10.8,39.2-16.2,60.5-16.2
				c30.6,0,59.8,11.5,82.4,32.8C864.4,900.2,874.1,960.7,847.1,1009.6z M659.6,839.4c0,66.6-54,121-120.6,121
				c-67,0-121.3-54.4-121.3-121s54.4-121,121.3-121C605.6,718.4,659.6,772.8,659.6,839.4z"/>
			<path fill="#9ACA3C" d="M589.4,1081.6L589.4,1081.6c0-0.4-0.4-0.7-0.4-1.1l0,0c0-0.4-0.4-0.7-0.4-1.1c0,0,0-0.4-0.4-0.4
				c0-0.4-0.4-0.4-0.4-0.7c0,0,0-0.4-0.4-0.4c-0.4-0.4-0.4-0.7-0.7-0.7c-0.4,0-0.4-0.7-0.7-0.7c0,0,0,0-0.4-0.4s-0.4-0.4-0.7-0.7
				c0,0-0.4,0-0.4-0.4c-0.4-0.4-0.4-0.4-0.7-0.4c0,0-0.4,0-0.4-0.4c-0.4-0.4-0.7-0.4-1.1-0.4l-50.8-20.5c-5-2.2-10.8,0.4-13,5.4
				s0.4,10.8,5.4,13l34.2,13.7c-18.7,10.1-41.4,10.8-60.8,1.4l0,0c-24.8-11.5-40.3-36.7-40-64.8c0-5.4-4.3-10.1-9.7-10.1
				c-5.4,0-10.1,4.3-10.1,9.7c-0.7,35.6,19.4,68.4,51.1,83.2c11.9,5.8,24.8,8.6,37.4,8.6c10.8,0,21.6-2.2,32-6.1l-9,22
				c-2.2,5,0.4,10.8,5.4,13c1.1,0.4,2.5,0.7,4,0.7c4,0,7.6-2.2,9.4-6.1l20.5-50.4v-0.4v-0.4c0-0.4,0.4-0.7,0.4-0.7v-0.4
				c0-0.4,0-0.7,0.4-1.1c0-0.4,0-0.7,0-1.1v-0.4C589.4,1082.4,589.4,1082,589.4,1081.6L589.4,1081.6z"/>
			<path fill="#9ACA3C" d="M691.2,719.5L691.2,719.5c0,0.4,0.4,0.7,0.4,1.1l0,0c0,0.4,0.4,0.7,0.4,1.1c0,0,0,0.4,0.4,0.4
				c0,0.4,0.4,0.4,0.4,0.7c0,0,0,0.4,0.4,0.4c0.4,0.4,0.4,0.7,0.7,0.7c0.4,0.4,0.4,0.7,0.7,0.7c0,0,0,0,0.4,0.4s0.4,0.4,0.7,0.7
				c0,0,0.4,0,0.4,0.4c0.4,0.4,0.4,0.4,0.7,0.4c0,0,0.4,0,0.4,0.4c0.4,0.4,0.7,0.4,1.1,0.4l50.8,20.5c5,2.2,10.8-0.4,13-5.4
				s-0.4-10.8-5.4-13l-34.5-13.9c18.7-10.1,41.4-10.8,60.8-1.4l0,0c24.8,11.5,40.3,36.7,40,64.8c0,5.4,4.3,10.1,9.7,10.1h0.4
				c5.4,0,9.7-4.3,10.1-9.7c0.7-36-19.4-68.4-51.5-83.2l0,0c-22.3-10.4-47.2-11.2-69.5-2.5l9-22c2.2-5-0.4-10.8-5.4-13
				s-10.8,0.4-13,5.4l-20.5,50.4v0.4v0.4c0,0.4-0.4,0.7-0.4,0.7v0.4c0,0.4,0,0.7-0.4,1.1c0,0.4,0,0.7,0,1.1v0.4
				C691.2,718.4,691.2,718.8,691.2,719.5C691.2,719.1,691.2,719.1,691.2,719.5z"/>
		</g>
	</g>
</g>
</svg>
