<?xml version="1.0" encoding="utf-8"?>
<!-- Generator: Adobe Illustrator 18.0.0, SVG Export Plug-In . SVG Version: 6.00 Build 0)  -->
<!DOCTYPE svg PUBLIC "-//W3C//DTD SVG 1.1//EN" "http://www.w3.org/Graphics/SVG/1.1/DTD/svg11.dtd">
<svg version="1.1" id="Layer_1" xmlns="http://www.w3.org/2000/svg" xmlns:xlink="http://www.w3.org/1999/xlink" x="0px" y="0px"
	 viewBox="320 40 640 640" enable-background="new 320 40 640 640" xml:space="preserve">
<g>
	<path fill="#9ACA3C" d="M662.7,295.8c6.1,0,11.2-5,11.2-11.2c0-6.1-5-11.2-11.2-11.2c-20.5,0-37.4-16.6-37.4-37.4
		c0-20.5,16.9-37.4,37.4-37.4c6.1,0,11.2-5,11.2-11.2s-5-11.2-11.2-11.2c-32.8,0-59.4,26.6-59.4,59.8
		C602.9,269.1,629.9,295.8,662.7,295.8z"/>
	<path fill="#9ACA3C" d="M518,401.6c-34.6,0-62.6,28.1-62.6,62.6c0,34.6,27,62.6,61.6,62.6c15.5,0,29.5-5.8,40.3-15.8v23.4
		c0,6.1,4.7,11.2,10.8,11.2s10.8-5,10.8-11.2v-73.8c0-2.2-0.4-2.2-0.4-6.1C574,424.6,548.9,401.6,518,401.6z M558.3,464.2
		c0,22.3-18,40.3-40.3,40.3s-40.3-18-40.3-40.3s18-40.3,40.3-40.3S558.3,441.9,558.3,464.2z"/>
	<path fill="#9ACA3C" d="M764.5,553.2c34.6,0,62.6-28.1,62.6-62.6c0-34.5-26.3-62.6-60.8-62.6c-15.5,0-29.2,5.8-40,15.8V406
		c0-6.1-4.7-11.2-10.8-11.2s-10.8,5-10.8,11.2v88.2c0,2.2-0.4,2.2-0.4,6.1C709,530.1,733.5,553.2,764.5,553.2z M723.9,490.5
		c0-22.3,18-40.3,40.3-40.3s40.3,18,40.3,40.3s-18,40.3-40.3,40.3C742.2,530.8,723.9,512.8,723.9,490.5z"/>
	<path fill="#9ACA3C" d="M849.9,340.4h-76.7V159.3c0-28.1-18-45.7-46.1-45.7H561.5c-28.1,0-54.7,17.6-54.7,45.7v181.1h-68
		c-28.1,0-54.4,18.4-54.4,46.4v165.6c0,28.1,26.3,54,54.4,54h165.6c15.5,0,30.2-6.8,40-19.4c9.7,12.2,24.1,19.4,40,19.4H850
		c28.1,0,45.7-25.9,45.7-54V386.8C895.5,358.8,878,340.4,849.9,340.4z M528.4,159.3c0-15.8,17.3-24.1,33.1-24.1H727
		c15.8,0,24.5,8.3,24.5,24.1v181.1h-67.3c-15.5,0-30.2,6.8-40,19.4c-9.7-12.2-24.1-19.4-40-19.4h-76V159.3H528.4z M874,556.4
		c0,15.8-13,28.8-28.8,28.8H679.5c-15.8,0-28.8-13-28.8-28.8V390.8c0-15.8,13-28.8,28.8-28.8h165.6c15.8,0,28.8,13,28.8,28.8
		L874,556.4L874,556.4z M629.2,556.4c0,15.8-13,28.8-28.8,28.8H434.8c-15.8,0-28.8-13-28.8-28.8V390.8c0-15.8,13-28.8,28.8-28.8
		h165.6c15.8,0,28.8,13,28.8,28.8V556.4z"/>
</g>
</svg>
