<?xml version="1.0" encoding="utf-8"?>
<!-- Generator: Adobe Illustrator 18.0.0, SVG Export Plug-In . SVG Version: 6.00 Build 0)  -->
<!DOCTYPE svg PUBLIC "-//W3C//DTD SVG 1.1//EN" "http://www.w3.org/Graphics/SVG/1.1/DTD/svg11.dtd">
<svg version="1.1" id="Layer_1" xmlns="http://www.w3.org/2000/svg" xmlns:xlink="http://www.w3.org/1999/xlink" x="0px" y="0px"
	 viewBox="320 40 640 640" enable-background="new 320 40 640 640" xml:space="preserve">
<g>
	<path fill="#9ACA3C" d="M844.3,189.2c0-18.4-15.1-33.5-33.5-33.5H469.1c-18.4,0-33.5,15.1-33.5,33.5v341.6
		c0,18.4,15.1,33.5,33.5,33.5h341.6c18.4,0,33.5-15.1,33.5-33.5L844.3,189.2L844.3,189.2z M820.5,196v154.1H647V176.2h155.5
		C814,176.2,820.5,184.1,820.5,196z M479.2,176.2h143.7v173.5H456.2V196C456.2,184.1,467.7,176.2,479.2,176.2z M456.2,518.6V373.5
		h166.7v166.7H479.2C467.7,540.5,456.2,530.5,456.2,518.6z M802.2,540.5H646.7v-167h173.9v145.1C820.5,530.5,814,540.5,802.2,540.5z
		"/>
	<path fill="#9ACA3C" d="M696.8,269.1h30.2v29.2c0,6.1,2.9,11.2,9,11.2s9-5,9-11.2v-29.2h29.2c6.1,0,11.2-2.9,11.2-9
		c0-6.1-5-9-11.2-9h-29.2v-30.2c0-6.1-2.9-11.2-9-11.2s-9,5-9,11.2v30.2h-30.2c-6.1,0-11.2,2.9-11.2,9
		C685.5,266.2,690.5,269.1,696.8,269.1z"/>
	<path fill="#9ACA3C" d="M777.3,449.1h-77.4c-6.1,0-11.2,2.9-11.2,9c0,6.1,5,9,11.2,9h77.4c6.1,0,11.2-2.9,11.2-9
		C788.5,452,783.4,449.1,777.3,449.1z"/>
	<path fill="#9ACA3C" d="M584,449.1h-80.6c-6.1,0-11.2,2.9-11.2,9c0,6.1,5,9,11.2,9H584c6.1,0,11.2-2.9,11.2-9
		C595.2,452,590.2,449.1,584,449.1z"/>
	<path fill="#9ACA3C" d="M538.7,438.3h13c6.1,0,11.2-6.5,11.2-12.6c0-6.1-5-12.6-11.2-12.6h-13c-6.1,0-11.2,6.5-11.2,12.6
		C527.5,431.8,532.5,438.3,538.7,438.3z"/>
	<path fill="#9ACA3C" d="M551.7,477.9h-13c-6.1,0-11.2,6.5-11.2,12.6c0,6.1,5,12.6,11.2,12.6h13c6.1,0,11.2-6.5,11.2-12.6
		C562.8,484.4,557.8,477.9,551.7,477.9z"/>
	<path fill="#9ACA3C" d="M526.4,263l-20.9,20.5c-4.3,4.3-4.3,11.5,0,15.8c2.2,2.2,5,3.2,7.9,3.2c2.9,0,5.8-1.1,7.9-3.2l20.5-20.5
		l20.5,20.5c2.2,2.2,5,3.2,7.9,3.2s5.8-1.1,7.9-3.2c4.3-4.3,4.3-11.5,0-15.8L557.7,263l20.9-20.9c4.3-4.3,4.3-11.5,0-15.8
		c-4.3-4.3-11.5-4.3-15.8,0l-20.8,20.8l-20.5-21.2c-4.3-4.3-11.5-4.3-15.8,0s-4.3,11.5,0,15.8L526.4,263z"/>
</g>
</svg>
