<?xml version="1.0" encoding="utf-8"?>
<!-- Generator: Adobe Illustrator 18.0.0, SVG Export Plug-In . SVG Version: 6.00 Build 0)  -->
<!DOCTYPE svg PUBLIC "-//W3C//DTD SVG 1.1//EN" "http://www.w3.org/Graphics/SVG/1.1/DTD/svg11.dtd">
<svg version="1.1" id="Layer_1" xmlns="http://www.w3.org/2000/svg" xmlns:xlink="http://www.w3.org/1999/xlink" x="0px" y="0px"
	 viewBox="320 40 640 640" enable-background="new 320 40 640 640" xml:space="preserve">
<g>
	<path fill="#9ACA3C" d="M819.4,431.3V188.6c0-3.6-0.4-6.8-2.9-9s-5-3.2-8.3-2.5L598,216.4c-5.4,1.1-9,6.1-9,11.5v212.4
		c-14.4-10.4-32.8-17.3-53.6-17.3c-42.1,0-76.3,27-76.3,60.1s34.2,60.1,76.3,60.1s76.3-27,76.3-60.1c0-3.6-1.1-7.6-1.1-10.8V306
		l110.2-20.5c6.5-1.1,10.4-7.2,9.4-13.7c-1.1-6.5-7.2-10.4-13.7-9.4l-105.8,19.8v-44.6l187.2-34.9v43.2l-25.9,5
		c-6.5,1.4-10.8,7.6-9.4,13.7c1.1,5.8,6.1,9.4,11.5,9.4c0.7,0,1.8,0,2.5-0.4l21.2-4.3v131.8c-7.2-5.4-16.2-9.7-26.3-12.6
		c-8.6-2.5-17.6-3.6-27-3.6c-42.1,0-76.3,27-76.3,60.1s34.2,60.1,76.3,60.1s76.3-27,76.3-60.1C821.2,440.3,819.4,436,819.4,431.3z
		 M535.4,519.5c-28.4,0-52.6-16.6-52.6-36.4s24.1-36.4,52.6-36.4c28.5,0,52.6,16.6,52.6,36.4C587.9,502.9,563.8,519.5,535.4,519.5z
		 M744.9,481.7c-28.4,0-52.9-16.6-52.9-36.4s24.1-36.4,52.6-36.4c6.8,0,14,1.1,20.5,2.9c19.1,5.4,32.8,18.7,32.8,32.4v1.8
		C797.8,465.5,773,481.7,744.9,481.7z"/>
	<path fill="#9ACA3C" d="M741.3,419.4c-21.6,0-38.9,11.9-38.9,27.4c0,2.5,2.2,4.7,4.7,4.7s4.7-2.2,4.7-4.7
		c0-9.7,13.3-17.6,29.2-17.6c2.5,0,4.7-2.2,4.7-4.7S743.8,419.4,741.3,419.4z"/>
	<path fill="#9ACA3C" d="M534.3,456.1c-21.6,0-38.9,11.9-38.9,27.4c0,2.5,2.2,4.7,4.7,4.7s4.7-2.2,4.7-4.7
		c0-9.7,13.3-17.6,29.2-17.6c2.5,0,4.7-2.2,4.7-4.7C538.6,458.6,536.8,456.1,534.3,456.1z"/>
</g>
</svg>
