<?xml version="1.0" encoding="utf-8"?>
<!-- Generator: Adobe Illustrator 18.0.0, SVG Export Plug-In . SVG Version: 6.00 Build 0)  -->
<!DOCTYPE svg PUBLIC "-//W3C//DTD SVG 1.1//EN" "http://www.w3.org/Graphics/SVG/1.1/DTD/svg11.dtd">
<svg version="1.1" id="Layer_1" xmlns="http://www.w3.org/2000/svg" xmlns:xlink="http://www.w3.org/1999/xlink" x="0px" y="0px"
	 viewBox="320 40 640 640" enable-background="new 320 40 640 640" xml:space="preserve">
<g>
	<g>
		<g>
			<path fill="#9ACA3C" d="M797.5,135.5c-0.4-3.2-2.2-6.5-5-8.6c-2.9-2.2-6.1-2.9-9.7-2.2s-88.9,18-145.4,66.2
				c-9,7.9-7.9,22-6.5,38.2c0.4,5.4,1.1,13.7,0.7,18c-0.4,0-0.7,0-1.1,0c-4,0-9.7-1.4-15.1-2.5c-6.8-1.4-13.7-3.2-20.2-3.2
				c-7.9,0-14,2.5-18.7,7.2c-34.9,36-64.8,72.4-78.5,94.7c-36.7,61.2-20.9,139.7,34.2,182.5l-33.8,51.1c-3.6,5.8-1.4,13.3,4.3,16.9
				c1.8,1.1,4,1.8,6.1,1.8c4.3,0,8.3-2.2,10.4-5.8l33.5-50.8c20.2,10.4,42.5,16.2,65.2,16.2c23.8,0,47.2-6.1,68-17.6
				c21.6-11.9,39.6-29.2,52.2-50.4c6.1-10.4-0.7-23.4-11.2-42.8c-4.3-8.3-9-16.6-11.9-24.1c-2.9-7.2-3.2-10.4-3.2-11.9
				c4-1.8,14.8-2.5,21.2-2.9c18.4-1.1,41.4-2.5,47.9-21.2C813.7,288.2,798.2,141.6,797.5,135.5z M758.3,377.1
				c-2.5,3.2-18.4,4-26.3,4.7c-17.6,1.1-36.4,2.2-42.5,16.9c-6.5,15.5,5,37.1,16.2,57.6c3.6,6.8,8.6,16.6,10.1,20.9
				c-21.2,33.8-57.6,53.6-97.9,53.6c-18.4,0-36.4-4.3-52.6-12.6l120.2-200.5l29.9,20.9c2.2,1.4,4.7,2.2,6.8,2.2c4,0,7.6-1.8,10.1-5
				c4-5.4,2.5-13-2.9-16.9l-31.3-22l35.6-59.4c3.6-5.8,1.4-13.3-4.3-16.9c-5.8-3.6-13.3-1.4-16.9,4.3L603.8,406.2l-36-24.5
				c-5.4-4-13.3-2.5-16.9,3.2c-4,5.4-2.5,13.3,3.2,16.9l37.1,25.2l-46.4,77.8c-43.6-35.6-55.8-99-25.9-149
				c12.2-20.5,41.4-55.8,74.5-90c0.4,0,0.7,0,1.8,0c3.6,0,9.4,1.4,14.8,2.5c6.8,1.4,14,3.2,20.5,3.2c7.6,0,14-2.2,18.4-6.5
				c8.6-7.9,7.6-22,6.1-38.2c-0.4-5.8-1.4-15.1-0.7-18.7c38.9-32.8,94.3-50,119.5-56.5C777.4,190.6,783.1,302.2,758.3,377.1z"/>
		</g>
	</g>
</g>
</svg>
