<?xml version="1.0" encoding="utf-8"?>
<!-- Generator: Adobe Illustrator 18.0.0, SVG Export Plug-In . SVG Version: 6.00 Build 0)  -->
<!DOCTYPE svg PUBLIC "-//W3C//DTD SVG 1.1//EN" "http://www.w3.org/Graphics/SVG/1.1/DTD/svg11.dtd">
<svg version="1.1" id="Layer_1" xmlns="http://www.w3.org/2000/svg" xmlns:xlink="http://www.w3.org/1999/xlink" x="0px" y="0px"
	 viewBox="320 40 640 640" enable-background="new 320 40 640 640" xml:space="preserve">
<g>
	<g>
		<g>
			<path fill="#9ACA3C" d="M888.8,318.2c-5.8-52.9-31-101.5-70.6-137.2c-39.6-35.3-90-54.4-142.6-54.4c-7.6,0-15.5,0.4-23,1.1
				c-6.5,0-50,1.4-78.8,33.8C554,184,546,214.9,550,254.2c-0.4,5-0.4,23.8,13,38.5c10.8,11.9,27.4,18,48.6,18c4.3,0,9.4-0.4,14-0.7
				c1.4,0,2.9-0.4,4-0.4c18.7,0,34.6,14,36.7,32.8c1.1,9.7-1.8,19.4-7.9,27S643.2,382,633.5,383c-19.8,2.2-34.6,10.1-44.6,23.8
				c-17.6,24.5-12.2,58.3-11.2,63.4c3.6,32.8,16.2,56.9,37.1,71.6c14.8,10.4,34.2,16.2,55.8,16.2c14.4,0,25.6-2.5,28.8-3.2
				C816.4,541.8,901.4,436,888.8,318.2z M696.2,534.6c-0.4,0-1.1,0-1.4,0.4c0,0-10.4,2.9-24.1,2.9c-42.8,0-67.3-23.4-72.4-69.8
				c0-0.4,0-0.7,0-1.1s-5.8-29.2,7.6-47.5c6.5-9,16.2-14,30.2-15.5c15.1-1.8,28.8-9,38.5-21.2c9.7-11.9,14-27,12.2-42.1
				c-3.2-29.2-27.7-51.1-57.2-51.1c-2.2,0-4.3,0-6.1,0.4c-4.3,0.4-8.3,0.7-11.9,0.7c-15.1,0-26.3-3.6-33.1-11.2
				c-9-10.1-7.9-25.6-7.9-26.3c0-33.5,2.5-59.4,18.4-77.4c23.8-26.6,62.3-27,64.1-27c0.4,0,0.7,0,1.4,0c7.2-0.7,14.4-1.1,21.2-1.1
				c99,0,182.2,74.5,193,173.2C879.8,427,802.7,523.1,696.2,534.6z"/>
			<path fill="#9ACA3C" d="M701.9,259.9c7.2-8.6,10.4-19.8,9-31c-2.2-21.6-20.5-37.8-42.1-37.8c-1.4,0-3.2,0-4.7,0.4
				c-23,2.5-40,23.4-37.4,46.4c2.5,21.6,20.5,37.8,41.8,37.8c1.4,0,3.2,0,4.7-0.4C685,274,695.1,268.6,701.9,259.9z M686.1,247
				c-3.6,4.7-8.6,7.2-14.4,7.9c-0.7,0-1.4,0-2.5,0c-11.2,0-20.2-8.3-21.2-19.1c-1.4-11.9,7.2-22.7,19.1-23.8c0.7,0,1.4,0,2.5,0
				c11.2,0,20.2,8.3,21.6,19.4C691.1,236.9,689.7,242.3,686.1,247z"/>
			<path fill="#9ACA3C" d="M762.4,318.6c1.4,0,2.9,0,4.7-0.4c23-2.5,40-23.4,37.4-46.4C802,250.2,784,234,762.4,234
				c-1.4,0-3.2,0-4.7,0.4c-11.2,1.1-21.2,6.8-28.4,15.5c-7.2,8.6-10.4,19.8-9,31C722.8,302.4,740.8,318.6,762.4,318.6z M745.5,262.8
				c3.6-4.7,8.6-7.2,14.4-7.9c0.7,0,1.4,0,2.5,0c11.2,0,20.2,8.3,21.6,19.4c1.4,11.9-7.2,22.7-19.1,23.8c-0.7,0-1.4,0-2.5,0
				c-11.2,0-20.2-8.3-21.6-19.4C740.1,272.9,741.9,267.5,745.5,262.8z"/>
			<path fill="#9ACA3C" d="M692.2,401.4c-1.4,0-3.2,0-4.7,0.4c-23,2.5-40,23.4-37.4,46.4c2.2,21.6,20.5,37.8,42.1,37.8
				c1.4,0,3.2,0,4.7-0.4c23-2.5,40-23.4,37.4-46.8C731.4,417.6,713.4,401.4,692.2,401.4z M694.4,465.1c-0.7,0-1.4,0-2.5,0
				c-11.2,0-20.2-8.3-21.6-19.4c-1.4-11.9,7.2-22.7,19.1-23.8c0.7,0,1.4,0,2.5,0c11.2,0,20.2,8.3,21.6,19.1
				C714.9,452.9,706.2,463.7,694.4,465.1z"/>
			<path fill="#9ACA3C" d="M773.9,339.1c-1.4,0-3.2,0-4.7,0.4c-23,2.5-40,23.4-37.4,46.4c2.2,21.6,20.5,37.8,41.8,37.8
				c1.4,0,3.2,0,4.7-0.4c23-2.5,40-23.4,37.4-46.4C813.5,355.3,795.5,339.1,773.9,339.1z M776.1,402.8c-0.7,0-1.4,0-2.5,0
				c-11.2,0-20.2-8.3-21.2-19.4c-1.4-11.9,7.2-22.7,19.1-23.8c0.7,0,1.4,0,2.5,0c11.2,0,20.2,8.3,21.6,19.4
				C796.6,391,788,401.8,776.1,402.8z"/>
			<path fill="#9ACA3C" d="M462.9,136.1c-15.8,0-29.2,19.1-41,58.7c-8.6,28.8-13.7,60.1-14,73.4c0,18,8.6,38.5,22,51.8
				c0.4,0.4,1.1,1.1,1.4,1.4c-0.7,1.4-1.1,2.9-1.1,4.3v90c0,0,0,0,0,0.4c0,0,0,0,0,0.4l6.5,139.7c0.4,5,4.3,8.6,9.4,8.6l0,0l32-0.4
				c4.7,0,8.6-4,9-8.6l7.6-139c0,0,0,0,0-0.4c0,0,0,0,0-0.4v-90c0-1.4-0.4-3.2-1.1-4.3c2.9-2.9,5.8-5.8,8.3-9.4
				c9.4-13,15.1-29.2,15.1-43.6c0-13.7-5-45-13.3-73.8C492,155.5,478.7,136.1,462.9,136.1z M469.4,546.1l-14.8,0.4l-4-85H474
				L469.4,546.1z M475.1,443.2h-25.2l-0.7-17.6h15.1h11.9L475.1,443.2z M476.6,407.2h-28.1v-72h11.9c0.7,0,1.4,0,2.2,0l0,0
				c0.7,0,1.1,0,1.8,0h12.2V407.2z M464,316.8h-2.9c-7.6-0.7-14-5.4-18-9.4c-9.7-9.7-16.6-25.9-16.6-38.9c0-10.4,4.7-40,13-68.4
				c11.5-37.8,21.2-45.7,23.4-45.7c2.2,0,11.9,7.9,23,45.7c7.6,25.9,12.6,56.5,12.6,68.4C498.9,289.1,482,315.7,464,316.8z"/>
		</g>
	</g>
</g>
</svg>
