<?xml version="1.0" encoding="utf-8"?>
<!-- Generator: Adobe Illustrator 18.0.0, SVG Export Plug-In . SVG Version: 6.00 Build 0)  -->
<!DOCTYPE svg PUBLIC "-//W3C//DTD SVG 1.1//EN" "http://www.w3.org/Graphics/SVG/1.1/DTD/svg11.dtd">
<svg version="1.1" id="Layer_1" xmlns="http://www.w3.org/2000/svg" xmlns:xlink="http://www.w3.org/1999/xlink" x="0px" y="0px"
	 viewBox="320 40 640 640" enable-background="new 320 40 640 640" xml:space="preserve">
<g>
	<g>
		<g>
			<path fill="#9ACA3C" d="M832.6,242.2c-29.5-66.2-95.4-109.1-168.1-109.1c-16.2,0-31.7,2.2-47.2,6.1l-12.6-37.8
				c-1.8-5.8-8.3-9-14-6.8c-59,19.4-106.9,60.5-134.6,116.6c-27.4,55.4-32,118.4-12.6,177.1c19.1,59,59.8,107.3,114.5,135.7
				c27,14,55.8,22.7,85,25.2v54.4h-75.6c-6.1,0-11.2,5-11.2,11.2s5,11.2,11.2,11.2h173.2c6.1,0,11.2-5,11.2-11.2
				c0-6.1-5-11.2-11.2-11.2H665V550c23.4,0,47.2-4,70.2-11.5c2.9-1.1,5-2.9,6.5-5.4c1.4-2.5,1.4-5.8,0.7-8.6l-11.9-36
				c2.9-1.1,6.1-2.5,9-3.6C831.9,444.2,873.7,335.1,832.6,242.2z M655.1,155.4L655.1,155.4c3.2-0.4,6.1-0.4,9.4-0.4
				c37.4,0,73.1,13,101.2,35.6c1.8,53.6-44.3,67-46.4,67.3c-4.3,1.1-7.6,4.7-8.3,9.4c-0.7,4.3,1.8,9,5.8,11.2
				c1.8,1.1,40.3,23.8,47.9,86.4c2.9,24.5-2.9,42.5-17.3,53.6c-3.2,2.5-6.5,4.3-9.4,5.8c0.4-11.2-1.8-25.2-11.2-35.3
				c-9.7-10.4-24.1-13.7-43.2-10.1c-47.2,9-84.2-20.5-86.4-22.3c-11.2-10.4-24.1-25.6-20.5-37.1c5-16.6,39.2-25.6,50.8-27.4
				c0.4,0,0.7,0,1.1-0.4c0.4,0,9.7-2.5,19.4-6.8c15.5-7.2,24.1-16.2,25.6-26.6c2.5-19.4-19.8-32-27.4-36
				c-11.2-6.1-16.6-13-17.6-21.2C626.7,183.5,646.9,162.3,655.1,155.4z M568,504.3c-49.7-25.9-86.4-69.5-103.7-123.1
				c-35.2-107.3,19.8-222.5,122.8-262.1l9,27c-2.2,0.7-4.3,1.8-6.5,2.9c-92.5,41.4-134.6,150.5-93.2,243
				c29.5,66.6,95.4,109.4,168.1,109.4c15.1,0,30.2-1.8,44.6-5.4l8.3,25.6C667.4,534.5,614.5,528.8,568,504.3z M730.4,465
				c-20.9,9.4-43.2,14-65.9,14c-63.7,0-122-37.8-148-96.1c-36.4-81.4,0.4-177.5,82.1-213.8c6.8-3.2,14-5.8,21.2-7.9
				c-7.9,11.5-14.8,25.9-13.3,41.4c1.4,15.8,11.2,28.8,28.8,38.5c13.7,7.6,16.2,13,15.8,13.7c-0.4,3.6-13.3,11.2-27.7,14.8
				c-7.9,1.4-58.3,10.8-68,42.8c-5.4,18.4,3.6,38.5,26.6,60.1l0.4,0.4c1.8,1.4,45.7,38.5,105.1,27.7c11.2-2.2,18.7-0.7,23,3.6
				c7.6,7.9,5,27,3.6,33.1c-0.7,3.6,0,7.2,2.5,10.1c2.2,2.5,5,4,8.3,4c0.4,0,0.7,0,1.1,0c1.1,0,28.4-3.2,46.1-25.9
				c12.6-15.8,17.3-37.1,14.4-62.6c-5.8-47.9-27.7-76.3-43.2-90.7c4.7-2.5,9.7-6.1,14.4-10.1c11.5-9.7,24.1-25.9,28.4-50.8
				c10.4,11.9,19.4,25.6,25.9,40.7C848.5,332.9,811.7,428.7,730.4,465z"/>
		</g>
	</g>
</g>
</svg>
