<?xml version="1.0" encoding="utf-8"?>
<!-- Generator: Adobe Illustrator 18.0.0, SVG Export Plug-In . SVG Version: 6.00 Build 0)  -->
<!DOCTYPE svg PUBLIC "-//W3C//DTD SVG 1.1//EN" "http://www.w3.org/Graphics/SVG/1.1/DTD/svg11.dtd">
<svg version="1.1" id="Layer_1" xmlns="http://www.w3.org/2000/svg" xmlns:xlink="http://www.w3.org/1999/xlink" x="0px" y="0px"
	 viewBox="320 40 640 640" enable-background="new 320 40 640 640" xml:space="preserve">
<g>
	<path fill="#9ACA3C" d="M770.8,409.3c-9-5.8-46.4,15.1-70.2,5s-25.9-51.5-38.9-47.9c-16.9,4.3-25.6,81,31.3,94.3
		C747.4,473.4,779.8,415.4,770.8,409.3z"/>
	<path fill="#9ACA3C" d="M681.5,319.7c10.4,5,19.4,18.7,27.4,16.9c8.3-1.4,2.9-32.8-16.9-41.4c-20.2-9-46.1,2.9-42.5,16.2
		C653.1,324.4,671.1,314.3,681.5,319.7z"/>
	<path fill="#9ACA3C" d="M817.9,381.6c8.3-1.4,2.9-32.8-16.9-41.4c-20.2-9-46.1,2.9-42.5,16.2c3.6,13,21.6,2.9,32,8.3
		C800.7,369.7,809.7,383.4,817.9,381.6z"/>
	<path fill="#9ACA3C" d="M505.8,313.6c-8.3,0-14.8,14.4-24.1,21.2c-9.4,6.8-28.8,0-30.2,13.3c-1.4,13.7,26.3,21.2,44.3,9
		C513.7,344.9,514.1,313.6,505.8,313.6z"/>
	<path fill="#9ACA3C" d="M942.5,460.1l-0.4-6.5l-6.5-3.2l-1.1-0.4c-19.8-5.4-39.6-16.6-49-22.7c22.7-45.4,14.4-51.5,10.4-54.4
		c-4-3.2-9.4-2.9-13.7,0c-9,5-15.5,6.5-20.5,6.5c9.4-18.4,18.4-38.9,26.6-62.3c3.2-9.4,0.4-19.8-7.2-26.3
		c-25.6-20.9-97.9-70.6-219.2-83.9c-9-1.1-18,3.6-22.7,11.5c0,0,0,0,0,0.4c0,0,0,0,0-0.4c-4.7-7.9-13.7-12.2-22.7-11.5
		c-121.7,13-194,63-219.2,83.9c-7.6,6.1-10.4,16.9-7.2,26.3c2.9,8.3,5.8,15.8,9,23.8c-18.4,10.8-41.4,26.6-59,48.2l-0.7,0.7
		c-2.2,3.6-2.5,7.9-0.7,11.5c4,7.6,13,7.9,37.1,7.9c6.1,0,15.1,0,20.5,0.4c0,3.2,0,7.9,0.4,11.5c0,19.1,0.7,32,4.7,39.6
		c2.9,5.4,7.2,6.8,9.7,7.2c0.7,0,1.1,0,1.8,0c6.1,0,10.1-4.3,15.1-9.7s12.6-13.7,25.2-21.2c20.5,26.3,43.6,46.4,68.8,60.5
		c29.2,15.8,54.7,19.8,71.6,19.8c8.3,0,14-1.1,17.3-1.8c4-1.4,16.2-6.1,28.8-19.8c13,13.7,25.2,18.7,29.9,20.2
		c3.6,1.1,10.1,2.2,16.9,2.2l0,0c16.6,0,55.1-4.7,97.2-37.4c24.1,13.7,47.5,18.4,68,18.4c34.6,0,61.9-13.3,72.4-19.4
		C942.9,468.7,942.5,463.7,942.5,460.1z M417.3,438.8c-0.4-6.1-0.4-13-0.4-17.3c0-14-0.4-19.8-2.5-24.1c-4.3-8.3-14.4-8.3-39.2-8.6
		c-2.2,0-4.3,0-6.8,0c12.6-11.9,26.3-21.2,38.2-28.4c10.1,22.3,21.2,42.5,33.1,60.1C429.9,427,422.7,433.4,417.3,438.8z
		 M603.4,495.7c-1.1,0.4-121,21.2-194-185.4c-0.4-1.1,0-2.2,0.7-2.9c18.7-15.5,88.9-66.2,208.4-79.2c1.1,0,1.8,0.4,2.5,1.4
		c2.2,3.6,4.3,7.6,6.5,12.2c-7.2,15.8-12.6,32.8-16.9,51.5c-6.8-0.4-15.5,9.7-24.1,8.3c-11.5-1.8-23.8-11.9-31.3-8.3
		c-7.2,4,6.8,32,28.8,34.6c7.9,1.1,15.8-1.4,21.6-5.4c-1.8,14.8-3.2,29.9-3.6,46.1c-0.4,9.7,0,18.4,0.7,27
		c-10.1-7.9-25.9-12.2-47.5-3.2c-38.5,16.2-26.3,54.7-19.4,60.1c6.8,5.4,12.2-28.4,34.2-34.9c14.8-4.3,27,0.4,35.3,2.5
		c4,26.3,11.9,45.4,20.5,59.4C615.3,491.8,605.5,495.4,603.4,495.7z M685.5,496.8c-6.1,0-10.1-0.7-10.8-1.1
		c-5.4-1.8-54-20.2-51.8-127.1c1.1-56.2,12.6-103.7,34.2-140c0.4-0.7,1.4-2.2,2.5-2.2l0,0c119.2,14.4,189.7,64.8,208.4,79.9
		c0.7,0.7,1.1,2.2,0.7,3.2C807.5,483.1,712.8,496.8,685.5,496.8z M799.9,466.2c17.3-16.6,34.9-38.2,51.5-66.6
		c7.2,1.8,15.1,1.8,23.8-0.7c-2.5,6.5-7.2,15.5-13.3,27l-2.2,2.2v2.5c0,4.7,1.1,7.9,25.2,21.6c6.1,3.6,15.5,7.9,24.8,11.5
		C887.8,475.2,845.7,488.9,799.9,466.2z"/>
</g>
</svg>
