<?xml version="1.0" encoding="utf-8"?>
<!-- Generator: Adobe Illustrator 18.0.0, SVG Export Plug-In . SVG Version: 6.00 Build 0)  -->
<!DOCTYPE svg PUBLIC "-//W3C//DTD SVG 1.0//EN" "http://www.w3.org/TR/2001/REC-SVG-20010904/DTD/svg10.dtd">
<svg version="1.0" id="Layer_1" xmlns="http://www.w3.org/2000/svg" xmlns:xlink="http://www.w3.org/1999/xlink" x="0px" y="0px"
	 viewBox="0 0 1078.8 600.3" enable-background="new 0 0 1078.8 600.3" xml:space="preserve">
<text transform="matrix(1 0 0 1 44.9285 501.6655)" font-family="'DINNextRoundedLTW01-Medium'" font-size="32.1537">Lengua - Matematica - Cs Sociales - Cs Naturales - Inglés</text>
<text transform="matrix(1 0 0 1 44.9285 552.9185)" font-family="'DINNextRoundedLTW01-Medium'" font-size="32.1537">Ed Fisica - Música - Plastica - Danza - Teatro</text>
<g transform="translate(0 -540.36)">
	<g>
		<g >
			<path d="M937.3,648.3L937.3,648.3c-1.5,0-2.8,1.2-2.8,2.8v14.2h-2.9c0-0.1,0-0.1,0-0.2c0,0,0-0.1,0-0.1
				c-1-9.7-10.2-17.4-19.9-16.7c-1.5,0.1-2.7,1.5-2.5,3c0.1,1.5,1.5,2.7,3,2.5c6.5-0.5,13.1,4.9,13.9,11.4h-28.2
				c-0.8,0-1.5,0.3-2,0.9c-0.5,0.6-0.8,1.4-0.7,2.1c0.5,4.7,3,9.2,6.8,12.3c3.3,2.7,7.4,4.2,11.4,4.2c0.6,0,1.1,0,1.7-0.1
				c7.7-0.8,14.2-6.7,16.1-14h3.5v11.2c0,1.5,1.2,2.8,2.8,2.8c1.5,0,2.8-1.2,2.8-2.8v-30.9C940.1,649.6,938.8,648.3,937.3,648.3z
				 M914.4,679.3c-3,0.3-6.3-0.7-9-2.9c-1.9-1.5-3.3-3.4-4.1-5.5h24C923.6,675.2,919.4,678.7,914.4,679.3z"/>
			<path d="M991.4,709.5L977.5,682c-0.5-0.9-1.4-1.5-2.5-1.5c-1.1,0-2,0.6-2.5,1.5l-14.1,28.2c-0.7,1.4-0.1,3,1.2,3.7
				c0.4,0.2,0.8,0.3,1.2,0.3c1,0,2-0.6,2.5-1.5l4.9-9.7h13.7l4.6,9.1c0.7,1.4,2.4,1.9,3.7,1.2C991.5,712.5,992.1,710.8,991.4,709.5
				L991.4,709.5z M971,697.4l4-8l4.1,8H971z"/>
			<path d="M1013,692.8c-1.3-8.7-5.6-16.8-12-22.8c-7.4-6.9-17-10.7-27-10.7c-5.9,0-11.8,1.3-17.1,3.9
				c-2.4-19.9-19.2-34.9-39.2-34.9c-10.6,0-20.6,4.1-28.1,11.6c-7.5,7.5-11.7,17.4-11.7,28.1c0,10.6,4.1,20.6,11.7,28.1
				c7.5,7.5,17.5,11.6,28.1,11.6c5.9,0,11.6-1.3,16.9-3.8c1.9,16.1,13.7,29.6,29.4,33.8c3.2,0.8,6.4,1.2,9.6,1.2
				c14.6,0,27.9-7.9,34.9-20.6C1012.7,710.5,1014.3,701.5,1013,692.8z M1003.2,715.3c-5.9,10.8-17.3,17.5-29.6,17.5
				c-2.7,0-5.5-0.3-8.1-1c-14.2-3.8-24.5-16.6-25.1-31.3c10.1-7.1,16.2-18.2,16.8-30.5c5.1-3,10.9-4.5,16.8-4.5
				c8.5,0,16.6,3.2,22.9,9.1C1008,684.9,1010.7,701.7,1003.2,715.3z M951.1,668c0,18.5-15,33.6-33.5,33.6
				c-18.6,0-33.7-15.1-33.7-33.6s15.1-33.6,33.7-33.6C936.1,634.4,951.1,649.5,951.1,668z"/>
			<path d="M931.6,735.3L931.6,735.3c0-0.1-0.1-0.2-0.1-0.3c0,0,0,0,0,0c0-0.1-0.1-0.2-0.1-0.3c0,0,0-0.1-0.1-0.1
				c0-0.1-0.1-0.1-0.1-0.2c0,0,0-0.1-0.1-0.1c-0.1-0.1-0.1-0.2-0.2-0.2s-0.1-0.2-0.2-0.2c0,0,0,0-0.1-0.1c-0.1-0.1-0.1-0.1-0.2-0.2
				c0,0-0.1,0-0.1-0.1c-0.1-0.1-0.1-0.1-0.2-0.1c0,0-0.1,0-0.1-0.1c-0.1-0.1-0.2-0.1-0.3-0.1l-14.1-5.7c-1.4-0.6-3,0.1-3.6,1.5
				c-0.6,1.4,0.1,3,1.5,3.6l9.5,3.8c-5.2,2.8-11.5,3-16.9,0.4h0c-6.9-3.2-11.2-10.2-11.1-18c0-1.5-1.2-2.8-2.7-2.8
				c-1.5,0-2.8,1.2-2.8,2.7c-0.2,9.9,5.4,19,14.2,23.1c3.3,1.6,6.9,2.4,10.4,2.4c3,0,6-0.6,8.9-1.7l-2.5,6.1c-0.6,1.4,0.1,3,1.5,3.6
				c0.3,0.1,0.7,0.2,1.1,0.2c1.1,0,2.1-0.6,2.6-1.7l5.7-14c0,0,0-0.1,0-0.1c0,0,0-0.1,0-0.1c0-0.1,0.1-0.2,0.1-0.2c0,0,0-0.1,0-0.1
				c0-0.1,0-0.2,0.1-0.3c0-0.1,0-0.2,0-0.3c0,0,0-0.1,0-0.1C931.6,735.5,931.6,735.4,931.6,735.3
				C931.6,735.3,931.6,735.3,931.6,735.3z"/>
			<path d="M959.9,634.7L959.9,634.7c0,0.1,0.1,0.2,0.1,0.3c0,0,0,0,0,0c0,0.1,0.1,0.2,0.1,0.3c0,0,0,0.1,0.1,0.1
				c0,0.1,0.1,0.1,0.1,0.2c0,0,0,0.1,0.1,0.1c0.1,0.1,0.1,0.2,0.2,0.2s0.1,0.2,0.2,0.2c0,0,0,0,0.1,0.1c0.1,0.1,0.1,0.1,0.2,0.2
				c0,0,0.1,0,0.1,0.1c0.1,0.1,0.1,0.1,0.2,0.1c0,0,0.1,0,0.1,0.1c0.1,0.1,0.2,0.1,0.3,0.1l14.1,5.7c1.4,0.6,3-0.1,3.6-1.5
				c0.6-1.4-0.1-3-1.5-3.6l-9.5-3.8c5.2-2.8,11.5-3,16.9-0.4h0c6.9,3.2,11.2,10.2,11.1,18c0,1.5,1.2,2.8,2.7,2.8c0,0,0.1,0,0.1,0
				c1.5,0,2.7-1.2,2.8-2.7c0.2-10-5.4-19-14.3-23.1l0,0c-6.2-2.9-13.1-3.1-19.3-0.7l2.5-6.1c0.6-1.4-0.1-3-1.5-3.6
				c-1.4-0.6-3,0.1-3.6,1.5l-5.7,14c0,0,0,0.1,0,0.1s0,0.1,0,0.1c0,0.1-0.1,0.2-0.1,0.2c0,0,0,0.1,0,0.1c0,0.1,0,0.2-0.1,0.3
				c0,0.1,0,0.2,0,0.3c0,0,0,0.1,0,0.1C959.9,634.4,959.9,634.5,959.9,634.7C959.9,634.6,959.9,634.6,959.9,634.7z"/>
		</g>
	</g>
</g>
<g>
	<g>
		<g >
			<path d="M597.2,111c-8.2-18.4-26.5-30.3-46.7-30.3c-4.5,0-8.8,0.6-13.1,1.7l-3.5-10.5c-0.5-1.6-2.3-2.5-3.9-1.9
				c-16.4,5.4-29.7,16.8-37.4,32.4c-7.6,15.4-8.9,32.9-3.5,49.2c5.3,16.4,16.6,29.8,31.8,37.7c7.5,3.9,15.5,6.3,23.6,7v15.1h-21
				c-1.7,0-3.1,1.4-3.1,3.1c0,1.7,1.4,3.1,3.1,3.1h48.1c1.7,0,3.1-1.4,3.1-3.1c0-1.7-1.4-3.1-3.1-3.1h-21v-14.9
				c6.5,0,13.1-1.1,19.5-3.2c0.8-0.3,1.4-0.8,1.8-1.5c0.4-0.7,0.4-1.6,0.2-2.4l-3.3-10c0.8-0.3,1.7-0.7,2.5-1
				C597,167.1,608.6,136.8,597.2,111z M547.9,86.9C547.9,86.9,547.9,86.9,547.9,86.9c0.9-0.1,1.7-0.1,2.6-0.1
				c10.4,0,20.3,3.6,28.1,9.9c0.5,14.9-12.3,18.6-12.9,18.7c-1.2,0.3-2.1,1.3-2.3,2.6c-0.2,1.2,0.5,2.5,1.6,3.1
				c0.5,0.3,11.2,6.6,13.3,24c0.8,6.8-0.8,11.8-4.8,14.9c-0.9,0.7-1.8,1.2-2.6,1.6c0.1-3.1-0.5-7-3.1-9.8c-2.7-2.9-6.7-3.8-12-2.8
				c-13.1,2.5-23.4-5.7-24-6.2c-3.1-2.9-6.7-7.1-5.7-10.3c1.4-4.6,10.9-7.1,14.1-7.6c0.1,0,0.2,0,0.3-0.1c0.1,0,2.7-0.7,5.4-1.9
				c4.3-2,6.7-4.5,7.1-7.4c0.7-5.4-5.5-8.9-7.6-10c-3.1-1.7-4.6-3.6-4.9-5.9C540,94.7,545.6,88.8,547.9,86.9z M523.7,183.8
				c-13.8-7.2-24-19.3-28.8-34.2c-9.7-29.8,5.5-61.8,34.1-72.8l2.5,7.5c-0.6,0.2-1.2,0.5-1.8,0.8c-25.7,11.5-37.4,41.8-25.9,67.5
				c8.2,18.4,26.5,30.3,46.7,30.3c4.2,0,8.4-0.5,12.4-1.5l2.3,7.1C551.3,192.2,536.6,190.6,523.7,183.8z M568.8,172.9
				c-5.8,2.6-12,3.9-18.3,3.9c-17.7,0-33.9-10.5-41.1-26.7c-10.1-22.6,0.1-49.3,22.8-59.4c1.9-0.9,3.9-1.6,5.9-2.2
				c-2.2,3.2-4.1,7.2-3.7,11.5c0.4,4.4,3.1,8,8,10.7c3.8,2.1,4.5,3.6,4.4,3.8c-0.1,1-3.7,3.1-7.7,4.1c-2.2,0.4-16.2,3-18.9,11.9
				c-1.5,5.1,1,10.7,7.4,16.7c0,0,0.1,0.1,0.1,0.1c0.5,0.4,12.7,10.7,29.2,7.7c3.1-0.6,5.2-0.2,6.4,1c2.1,2.2,1.4,7.5,1,9.2
				c-0.2,1,0,2,0.7,2.8c0.6,0.7,1.4,1.1,2.3,1.1c0.1,0,0.2,0,0.3,0c0.3,0,7.9-0.9,12.8-7.2c3.5-4.4,4.8-10.3,4-17.4
				c-1.6-13.3-7.7-21.2-12-25.2c1.3-0.7,2.7-1.7,4-2.8c3.2-2.7,6.7-7.2,7.9-14.1c2.9,3.3,5.4,7.1,7.2,11.3
				C601.6,136.2,591.4,162.8,568.8,172.9z"/>
		</g>
	</g>
</g>
<g>
	<path d="M150.3,126.6c1.7,0,3.1-1.4,3.1-3.1c0-1.7-1.4-3.1-3.1-3.1c-5.7,0-10.4-4.6-10.4-10.4c0-5.7,4.7-10.4,10.4-10.4
		c1.7,0,3.1-1.4,3.1-3.1c0-1.7-1.4-3.1-3.1-3.1c-9.1,0-16.5,7.4-16.5,16.6C133.7,119.2,141.2,126.6,150.3,126.6z"/>
	<path d="M110.1,156c-9.6,0-17.4,7.8-17.4,17.4c0,9.6,7.4,17.4,17,17.4c4.3,0,8.2-1.6,11.2-4.4v6.5c0,1.7,1.3,3.1,3,3.1
		c1.7,0,3-1.4,3-3.1v-20.5c0-0.6,0-0.6,0-1.7C125.6,162.4,118.7,156,110.1,156z M121.3,173.4c0,6.2-5,11.2-11.2,11.2
		s-11.2-5-11.2-11.2c0-6.2,5-11.2,11.2-11.2S121.3,167.2,121.3,173.4z"/>
	<path d="M178.6,198.1c9.6,0,17.4-7.8,17.4-17.4c0-9.6-7.4-17.4-17-17.4c-4.3,0-8.1,1.6-11.1,4.4v-10.5c0-1.7-1.3-3.1-3-3.1
		c-1.7,0-3,1.4-3,3.1v24.5c0,0.6,0,0.6,0,1.7C163.1,191.7,170,198.1,178.6,198.1z M167.3,180.7c0-6.2,5-11.2,11.2-11.2
		s11.2,5,11.2,11.2c0,6.2-5,11.2-11.2,11.2S167.3,186.9,167.3,180.7z"/>
	<path d="M202.3,139.3h-21.4V88.7c0-7.8-4.9-12.5-12.7-12.5h-46c-7.8,0-15.3,4.6-15.3,12.5v50.5H88.1c-7.8,0-15.2,4.9-15.2,12.7v46
		c0,7.8,7.4,15.3,15.2,15.3h46c4.3,0,8.4-1.9,11.1-5.4c2.7,3.4,6.7,5.4,11.1,5.4h46c7.8,0,12.6-7.5,12.6-15.3v-46
		C214.9,144.1,210.1,139.3,202.3,139.3z M112.9,88.7c0-4.4,4.9-6.5,9.3-6.5h46c4.4,0,6.7,2,6.7,6.5v50.5h-18.6
		c-4.3,0-8.4,1.9-11.1,5.4c-2.7-3.4-6.7-5.4-11.1-5.4h-21.2V88.7z M208.9,199.3c0,4.4-3.6,8-8,8h-46c-4.4,0-8-3.6-8-8v-46
		c0-4.4,3.6-8,8-8h46c4.4,0,8,3.6,8,8V199.3z M140.9,199.3c0,4.4-3.6,8-8,8h-46c-4.4,0-8-3.6-8-8v-46c0-4.4,3.6-8,8-8h46
		c4.4,0,8,3.6,8,8V199.3z"/>
</g>
<g>
	<g>
		<g>
			<path d="M613.1,333.4c-1.6-14.7-8.6-28.2-19.6-38.1c-11-9.8-25-15.1-39.6-15.1c-2.1,0-4.3,0.1-6.4,0.3c-1.8,0-13.9,0.4-21.9,9.4
				c-5.5,6.2-7.7,14.8-6.6,25.7c-0.1,1.4-0.1,6.6,3.6,10.7c3,3.3,7.6,5,13.5,5c1.2,0,2.6-0.1,3.9-0.2c0.4,0,0.8-0.1,1.1-0.1
				c5.2,0,9.6,3.9,10.2,9.1c0.3,2.7-0.5,5.4-2.2,7.5c-1.7,2.1-4.2,3.5-6.9,3.8c-5.5,0.6-9.6,2.8-12.4,6.6
				c-4.9,6.8-3.4,16.2-3.1,17.6c1,9.1,4.5,15.8,10.3,19.9c4.1,2.9,9.5,4.5,15.5,4.5c4,0,7.1-0.7,8-0.9
				C593,395.5,616.6,366.1,613.1,333.4z M559.6,393.5c-0.1,0-0.3,0-0.4,0.1c0,0-2.9,0.8-6.7,0.8c-11.9,0-18.7-6.5-20.1-19.4
				c0-0.1,0-0.2,0-0.3c0-0.1-1.6-8.1,2.1-13.2c1.8-2.5,4.5-3.9,8.4-4.3c4.2-0.5,8-2.5,10.7-5.9c2.7-3.3,3.9-7.5,3.4-11.7
				c-0.9-8.1-7.7-14.2-15.9-14.2c-0.6,0-1.2,0-1.7,0.1c-1.2,0.1-2.3,0.2-3.3,0.2c-4.2,0-7.3-1-9.2-3.1c-2.5-2.8-2.2-7.1-2.2-7.3
				c0-9.3,0.7-16.5,5.1-21.5c6.6-7.4,17.3-7.5,17.8-7.5c0.1,0,0.2,0,0.4,0c2-0.2,4-0.3,5.9-0.3c27.5,0,50.6,20.7,53.6,48.1
				C610.6,363.6,589.2,390.3,559.6,393.5z"/>
			<path d="M561.2,317.2c2-2.4,2.9-5.5,2.5-8.6c-0.6-6-5.7-10.5-11.7-10.5c-0.4,0-0.9,0-1.3,0.1c-6.4,0.7-11.1,6.5-10.4,12.9
				c0.7,6,5.7,10.5,11.6,10.5c0.4,0,0.9,0,1.3-0.1C556.5,321.1,559.3,319.6,561.2,317.2z M556.8,313.6c-1,1.3-2.4,2-4,2.2
				c-0.2,0-0.4,0-0.7,0c-3.1,0-5.6-2.3-5.9-5.3c-0.4-3.3,2-6.3,5.3-6.6c0.2,0,0.4,0,0.7,0c3.1,0,5.6,2.3,6,5.4
				C558.2,310.8,557.8,312.3,556.8,313.6z"/>
			<path d="M578,333.5c0.4,0,0.8,0,1.3-0.1c6.4-0.7,11.1-6.5,10.4-12.9c-0.6-6-5.7-10.5-11.7-10.5c-0.4,0-0.9,0-1.3,0.1
				c-3.1,0.3-5.9,1.9-7.9,4.3c-2,2.4-2.9,5.5-2.5,8.6C567,329,572,333.5,578,333.5z M573.3,318c1-1.3,2.4-2,4-2.2c0.2,0,0.4,0,0.7,0
				c3.1,0,5.6,2.3,6,5.4c0.4,3.3-2,6.3-5.3,6.6c-0.2,0-0.4,0-0.7,0c-3.1,0-5.6-2.3-6-5.4C571.8,320.8,572.3,319.3,573.3,318z"/>
			<path d="M558.5,356.5c-0.4,0-0.9,0-1.3,0.1c-6.4,0.7-11.1,6.5-10.4,12.9c0.6,6,5.7,10.5,11.7,10.5c0.4,0,0.9,0,1.3-0.1
				c6.4-0.7,11.1-6.5,10.4-13C569.4,361,564.4,356.5,558.5,356.5z M559.1,374.2c-0.2,0-0.4,0-0.7,0c-3.1,0-5.6-2.3-6-5.4
				c-0.4-3.3,2-6.3,5.3-6.6c0.2,0,0.4,0,0.7,0c3.1,0,5.6,2.3,6,5.3C564.8,370.8,562.4,373.8,559.1,374.2z"/>
			<path d="M581.2,339.2c-0.4,0-0.9,0-1.3,0.1c-6.4,0.7-11.1,6.5-10.4,12.9c0.6,6,5.7,10.5,11.6,10.5c0.4,0,0.9,0,1.3-0.1
				c6.4-0.7,11.1-6.5,10.4-12.9C592.2,343.7,587.2,339.2,581.2,339.2z M581.8,356.9c-0.2,0-0.4,0-0.7,0c-3.1,0-5.6-2.3-5.9-5.4
				c-0.4-3.3,2-6.3,5.3-6.6c0.2,0,0.4,0,0.7,0c3.1,0,5.6,2.3,6,5.4C587.5,353.6,585.1,356.6,581.8,356.9z"/>
			<path d="M494.8,282.8c-4.4,0-8.1,5.3-11.4,16.3c-2.4,8-3.8,16.7-3.9,20.4c0,5,2.4,10.7,6.1,14.4c0.1,0.1,0.3,0.3,0.4,0.4
				c-0.2,0.4-0.3,0.8-0.3,1.2v25c0,0,0,0,0,0.1c0,0,0,0,0,0.1l1.8,38.8c0.1,1.4,1.2,2.4,2.6,2.4c0,0,0,0,0,0l8.9-0.1
				c1.3,0,2.4-1.1,2.5-2.4l2.1-38.6c0,0,0,0,0-0.1c0,0,0,0,0-0.1v-25.1c0-0.4-0.1-0.9-0.3-1.2c0.8-0.8,1.6-1.6,2.3-2.6
				c2.6-3.6,4.2-8.1,4.2-12.1c0-3.8-1.4-12.5-3.7-20.5C502.9,288.2,499.2,282.8,494.8,282.8z M496.6,396.7l-4.1,0.1l-1.1-23.6l6.5,0
				L496.6,396.7z M498.2,368.1l-7,0l-0.2-4.9l4.2,0l3.3,0L498.2,368.1z M498.6,358.1l-7.8,0v-19.9h3.3c0.2,0,0.4,0,0.6,0h0
				c0.2,0,0.3,0,0.5,0h3.4V358.1z M495.1,333h-0.8c-2.1-0.2-3.9-1.5-5-2.6c-2.7-2.7-4.6-7.2-4.6-10.8c0-2.9,1.3-11.1,3.6-19
				c3.2-10.5,5.9-12.7,6.5-12.7c0.6,0,3.3,2.2,6.4,12.7c2.1,7.2,3.5,15.7,3.5,19C504.8,325.3,500.1,332.7,495.1,333z"/>
		</g>
	</g>
</g>
<g>
	<g>
		<g>
			<path d="M783.2,80.7c-0.1-0.9-0.6-1.8-1.4-2.4c-0.8-0.6-1.7-0.8-2.7-0.6c-1,0.2-24.7,5-40.4,18.4c-2.5,2.2-2.2,6.1-1.8,10.6
				c0.1,1.5,0.3,3.8,0.2,5c-0.1,0-0.2,0-0.3,0c-1.1,0-2.7-0.4-4.2-0.7c-1.9-0.4-3.8-0.9-5.6-0.9c-2.2,0-3.9,0.7-5.2,2
				c-9.7,10-18,20.1-21.8,26.3c-10.2,17-5.8,38.8,9.5,50.7l-9.4,14.2c-1,1.6-0.4,3.7,1.2,4.7c0.5,0.3,1.1,0.5,1.7,0.5
				c1.2,0,2.3-0.6,2.9-1.6l9.3-14.1c5.6,2.9,11.8,4.5,18.1,4.5c6.6,0,13.1-1.7,18.9-4.9c6-3.3,11-8.1,14.5-14
				c1.7-2.9-0.2-6.5-3.1-11.9c-1.2-2.3-2.5-4.6-3.3-6.7c-0.8-2-0.9-2.9-0.9-3.3c1.1-0.5,4.1-0.7,5.9-0.8c5.1-0.3,11.5-0.7,13.3-5.9
				C787.7,123.1,783.4,82.4,783.2,80.7z M772.3,147.8c-0.7,0.9-5.1,1.1-7.3,1.3c-4.9,0.3-10.1,0.6-11.8,4.7
				c-1.8,4.3,1.4,10.3,4.5,16c1,1.9,2.4,4.6,2.8,5.8c-5.9,9.4-16,14.9-27.2,14.9c-5.1,0-10.1-1.2-14.6-3.5l33.4-55.7l8.3,5.8
				c0.6,0.4,1.3,0.6,1.9,0.6c1.1,0,2.1-0.5,2.8-1.4c1.1-1.5,0.7-3.6-0.8-4.7l-8.7-6.1l9.9-16.5c1-1.6,0.4-3.7-1.2-4.7
				c-1.6-1-3.7-0.4-4.7,1.2l-30.2,50.4l-10-6.8c-1.5-1.1-3.7-0.7-4.7,0.9c-1.1,1.5-0.7,3.7,0.9,4.7l10.3,7l-12.9,21.6
				c-12.1-9.9-15.5-27.5-7.2-41.4c3.4-5.7,11.5-15.5,20.7-25c0.1,0,0.2,0,0.5,0c1,0,2.6,0.4,4.1,0.7c1.9,0.4,3.9,0.9,5.7,0.9
				c2.1,0,3.9-0.6,5.1-1.8c2.4-2.2,2.1-6.1,1.7-10.6c-0.1-1.6-0.4-4.2-0.2-5.2c10.8-9.1,26.2-13.9,33.2-15.7
				C777.6,96,779.2,127,772.3,147.8z"/>
		</g>
	</g>
</g>
<g>
	<path d="M401.6,97.8c0-5.1-4.2-9.3-9.3-9.3h-94.9c-5.1,0-9.3,4.2-9.3,9.3v94.9c0,5.1,4.2,9.3,9.3,9.3h94.9c5.1,0,9.3-4.2,9.3-9.3
		V97.8z M395,99.7v42.8h-48.2V94.2h43.2C393.2,94.2,395,96.4,395,99.7z M300.2,94.2h39.9v48.2h-46.3V99.7
		C293.8,96.4,297,94.2,300.2,94.2z M293.8,189.3V149h46.3v46.3h-39.9C297,195.4,293.8,192.6,293.8,189.3z M389.9,195.4h-43.2V149
		H395v40.3C395,192.6,393.2,195.4,389.9,195.4z"/>
	<path d="M360.6,120.3h8.3v7.8c0,1.7,0.8,3.1,2.5,3.1s2.5-1.4,2.5-3.1v-7.8h8.2c1.7,0,3.1-0.8,3.1-2.5s-1.4-2.5-3.1-2.5h-8.2v-8.7
		c0-1.7-0.8-3.1-2.5-3.1s-2.5,1.4-2.5,3.1v8.7h-8.3c-1.7,0-3.1,0.8-3.1,2.5S358.9,120.3,360.6,120.3z"/>
	<path d="M383,170.3h-21.5c-1.7,0-3.1,0.8-3.1,2.5s1.4,2.5,3.1,2.5H383c1.7,0,3.1-0.8,3.1-2.5S384.7,170.3,383,170.3z"/>
	<path d="M329.3,170.3h-22.4c-1.7,0-3.1,0.8-3.1,2.5s1.4,2.5,3.1,2.5h22.4c1.7,0,3.1-0.8,3.1-2.5S331,170.3,329.3,170.3z"/>
	<path d="M316.7,167.3h3.6c1.7,0,3.1-1.8,3.1-3.5s-1.4-3.5-3.1-3.5h-3.6c-1.7,0-3.1,1.8-3.1,3.5S315,167.3,316.7,167.3z"/>
	<path d="M320.3,178.3h-3.6c-1.7,0-3.1,1.8-3.1,3.5s1.4,3.5,3.1,3.5h3.6c1.7,0,3.1-1.8,3.1-3.5S322,178.3,320.3,178.3z"/>
	<path d="M313.3,118.3l-5.7,5.7c-1.2,1.2-1.2,3.2,0,4.4c0.6,0.6,1.4,0.9,2.2,0.9s1.6-0.3,2.2-0.9l5.7-5.7l5.7,5.7
		c0.6,0.6,1.4,0.9,2.2,0.9s1.6-0.3,2.2-0.9c1.2-1.2,1.2-3.2,0-4.4l-5.7-5.7l5.8-5.8c1.2-1.2,1.2-3.2,0-4.4c-1.2-1.2-3.2-1.2-4.4,0
		l-5.8,5.8l-5.8-5.8c-1.2-1.2-3.2-1.2-4.4,0c-1.2,1.2-1.2,3.2,0,4.4L313.3,118.3z"/>
</g>
<g>
	<path d="M142.5,376.9c0,7.2,5.8,13,13,13c7.2,0,13-5.8,13-13c0-7.2-5.8-13-13-13C148.3,363.9,142.5,369.8,142.5,376.9z
		 M161.9,376.9c0,3.5-2.9,6.4-6.4,6.4s-6.4-2.9-6.4-6.4c0-3.5,2.9-6.4,6.4-6.4S161.9,373.4,161.9,376.9z"/>
	<path d="M172.1,402.3h-41.6c0.8-0.5,1.5-1.4,1.6-2.5c0.9-10.1,5.4-37.5,15-43.4c2.8-1.4,16.5-6.3,37,23.6c1,1.5,3.1,1.9,4.6,0.8
		c1.5-1,1.9-3.1,0.9-4.6c-18-26.2-32.5-28.7-40.4-27.4c-1.2-4.3-4.7-16.5-9.5-23.8c-0.2-0.3-0.4-0.5-0.6-0.7
		c6.2-5.1,11-13.7,7.9-45.4c-0.2-1.8-1.8-3.1-3.6-3c-1.8,0.2-3.1,1.8-3,3.6c3.3,33.3-2.7,37.7-6.7,40.6c-0.2,0.1-0.3,0.2-0.5,0.4
		c-12.5,3.4-36.4-10.1-44.7-15.7c-1.5-1-3.5-0.6-4.6,0.9c-1,1.5-0.6,3.5,0.9,4.6c1.2,0.8,25.8,17.4,44,17.4c1.7,0,3.3-0.2,4.9-0.5
		c0.1,0.5,0.2,1,0.5,1.5c4.5,6.8,8,19.4,8.8,22.6c-13.4,9.5-17,43.9-17.3,47.9c-0.1,1.3,0.5,2.5,1.6,3.1H88.5
		c-1.8,0-3.3,1.7-3.3,3.5c0,1.8,1.5,3.5,3.3,3.5h83.6c1.8,0,3.3-1.7,3.3-3.5C175.4,404,174,402.3,172.1,402.3z"/>
	<path d="M204.1,402.3h-18.8c-1.8,0-3.3,1.7-3.3,3.5c0,1.8,1.5,3.5,3.3,3.5h18.8c1.8,0,3.3-1.7,3.3-3.5
		C207.4,404,205.9,402.3,204.1,402.3z"/>
</g>
<g>
	<path d="M794.9,393.9c-0.1-0.1-14.6-10.9-19.7-19.6c-6.1-10.3-9-24.6-8.2-40.3c0-0.3,0-0.6-0.1-0.9l5.3-16.2c0-0.1,0-0.1,0-0.2
		c0-0.1,0.1-0.2,0.1-0.4c0-0.1,0-0.2,0-0.3c0-0.1,0-0.2,0-0.3c0-0.1,0-0.2,0-0.3c0-0.1,0-0.2-0.1-0.3c0-0.1-0.1-0.2-0.1-0.3
		c0-0.1-0.1-0.2-0.1-0.3c0-0.1-0.1-0.2-0.1-0.3c-0.1-0.1-0.1-0.2-0.2-0.3c-0.1-0.1-0.1-0.2-0.2-0.3c0,0-0.1-0.1-0.1-0.2
		c0,0,0,0-0.1-0.1c-0.1-0.1-0.2-0.1-0.3-0.2c-0.1-0.1-0.2-0.1-0.3-0.2c-0.1-0.1-0.2-0.1-0.3-0.1c-0.1-0.1-0.2-0.1-0.3-0.1
		c0,0-0.1,0-0.1,0c-0.1,0-0.1,0-0.2,0c-0.1,0-0.2-0.1-0.3-0.1c-0.1,0-0.2,0-0.3,0c-0.1,0-0.2,0-0.3,0c-0.1,0-0.2,0-0.3,0
		c-0.1,0-0.2,0-0.3,0.1c-0.1,0-0.2,0.1-0.3,0.1c-0.1,0-0.2,0.1-0.3,0.1c-0.1,0-0.2,0.1-0.3,0.2c-0.1,0-0.2,0.1-0.2,0.2
		c-0.1,0.1-0.2,0.2-0.3,0.2c0,0-0.1,0.1-0.1,0.1c-19.7,20-48.1,0.5-49.3-0.4v0c-0.1,0-0.1-0.1-0.2-0.1c-0.1-0.1-0.2-0.1-0.3-0.2
		c-0.1,0-0.2-0.1-0.3-0.1c-0.1,0-0.2-0.1-0.3-0.1c-0.1,0-0.2,0-0.3-0.1c-0.1,0-0.2,0-0.3,0c-0.1,0-0.2,0-0.3,0c-0.1,0-0.2,0-0.3,0
		c-0.1,0-0.2,0-0.4,0.1c-0.1,0-0.1,0-0.2,0c0,0,0,0-0.1,0c-0.1,0-0.2,0.1-0.3,0.2c-0.1,0-0.2,0.1-0.2,0.1c-0.1,0.1-0.2,0.1-0.3,0.2
		c-0.1,0.1-0.2,0.1-0.2,0.2c-0.1,0.1-0.1,0.1-0.2,0.2c-0.1,0.1-0.2,0.2-0.2,0.3c0,0,0,0,0,0.1c0,0.1-0.1,0.1-0.1,0.2
		c-0.1,0.1-0.1,0.2-0.2,0.3c0,0.1-0.1,0.2-0.1,0.3c0,0.1-0.1,0.2-0.1,0.3c0,0.1,0,0.2-0.1,0.3c0,0.1,0,0.2,0,0.3c0,0.1,0,0.2,0,0.3
		c0,0.1,0,0.2,0,0.3c0,0.1,0,0.2,0.1,0.3c0,0.1,0,0.1,0,0.2l5.3,16.2c-0.1,0.3-0.1,0.6-0.1,0.9c0.8,16.6-1.8,30.5-7.5,40.3
		c-5.1,8.7-19.5,19.4-19.7,19.6c-1.4,1.1-1.7,3.1-0.7,4.6c0.6,0.9,1.6,1.3,2.6,1.3c0.7,0,1.4-0.2,1.9-0.6
		c0.6-0.5,15.6-11.7,21.4-21.5c4.2-7.1,6.8-16,8-26.3l7,21.4l2.2,24c0.2,1.7,1.6,3,3.2,3c0.1,0,0.2,0,0.3,0c1.8-0.2,3.1-1.8,3-3.5
		l-2.2-24.4c0-0.2-0.1-0.5-0.1-0.7l-15.8-48.2c6,2.9,14.8,6.1,24.3,6.1c5.6,0,11.5-1.2,17.1-4.2l-15.3,46.7
		c-0.1,0.2-0.1,0.5-0.2,0.8l-2,24.6c-0.1,1.8,1.2,3.4,3,3.5c0.1,0,0.2,0,0.3,0c1.7,0,3.1-1.3,3.3-3l1.9-24.2l7.3-22.3
		c1.3,10.1,4.1,19.3,8.5,26.7c5.8,9.8,20.8,21,21.4,21.5c0.6,0.4,1.3,0.6,1.9,0.6c1,0,2-0.5,2.6-1.3
		C796.6,397,796.3,394.9,794.9,393.9z"/>
	<path d="M729.2,314.6l8.1-5.3l18.7,7.5c0.4,0.2,0.8,0.2,1.2,0.2c1.3,0,2.5-0.8,3-2c0.7-1.7-0.1-3.6-1.8-4.3l-20.3-8.2
		c-1-0.4-2.1-0.3-3,0.3l-9.5,6.2c-1.5,1-1.9,3-0.9,4.5C725.7,315.2,727.7,315.6,729.2,314.6z"/>
	<path d="M773.9,309.3c7.1,0,12.9-5.8,12.9-12.9s-5.8-12.9-12.9-12.9c-7.1,0-12.9,5.8-12.9,12.9S766.7,309.3,773.9,309.3z
		 M773.9,290.1c3.5,0,6.4,2.9,6.4,6.4s-2.9,6.4-6.4,6.4c-3.5,0-6.4-2.9-6.4-6.4S770.4,290.1,773.9,290.1z"/>
	<path d="M708.6,309.3c7.1,0,12.9-5.8,12.9-12.9s-5.8-12.9-12.9-12.9c-7.1,0-12.9,5.8-12.9,12.9S701.4,309.3,708.6,309.3z
		 M708.6,290.1c3.5,0,6.4,2.9,6.4,6.4s-2.9,6.4-6.4,6.4c-3.5,0-6.4-2.9-6.4-6.4S705,290.1,708.6,290.1z"/>
</g>
<g>
	<g>
		<path d="M954.6,388.8C954.6,388.8,954.6,388.8,954.6,388.8c-1.9,0-3.7-0.2-4.7-0.5c-3.2-1-19.2-7.7-18.5-41
			c0.3-16.6,3.8-30.6,10.4-41.5c1.3-2.2,3.8-3.4,6.3-3.2c33.8,3.6,53.9,17.5,60.9,23.3c2.1,1.7,2.9,4.7,2,7.3
			C992.7,384.8,963.2,388.8,954.6,388.8z M947.4,308.4c-0.3,0-0.5,0.1-0.7,0.4c-6,10-9.2,23-9.5,38.7c-0.6,29.8,12.9,34.8,14.4,35.3
			c0.2,0.1,1.3,0.3,3,0.3c7.6,0,33.9-3.7,50.9-51.8c0.1-0.3,0-0.6-0.2-0.8C1000.1,326.2,980.5,312,947.4,308.4
			C947.4,308.4,947.4,308.4,947.4,308.4z"/>
	</g>
	<g>
		<path d="M948,346.8c3.6-0.9,4.2,10.5,10.8,13.3s17-3,19.5-1.4s-6.5,17.8-21.7,14.2C941,369.2,943.3,348,948,346.8z"/>
	</g>
	<g id="lengua">
		<path d="M944.6,331.5c1,3.6,6,0.8,8.9,2.3c2.9,1.4,5.4,5.2,7.6,4.7c2.3-0.4,0.8-9.1-4.7-11.5C950.8,324.5,943.6,327.8,944.6,331.5
			z"/>
	</g>
	<g>
		<path d="M974.9,344c1,3.6,6,0.8,8.9,2.3c2.9,1.4,5.4,5.2,7.6,4.7c2.3-0.4,0.8-9.1-4.7-11.5C981.1,337,973.8,340.3,974.9,344z"/>
	</g>
	<g>
		<path d="M928.8,388.8c-4.6,0-11.8-1.1-19.9-5.5c-15.5-8.5-27.7-25.4-36.5-50.1c-0.9-2.6-0.1-5.5,2-7.3
			c7.1-5.8,27.2-19.6,60.9-23.3c2.5-0.3,5,1,6.3,3.2c0.9,1.6,1.9,3.4,2.7,5.4l-5.3,2.3c-0.8-1.8-1.5-3.3-2.4-4.7
			c-0.2-0.3-0.4-0.4-0.7-0.4c-33.1,3.6-52.7,17.7-57.9,22c-0.2,0.2-0.3,0.5-0.2,0.8c20.3,57.4,53.6,51.6,53.9,51.5
			c0.7-0.2,4.1-1.5,7.4-6.6l4.9,3.2c-4.3,6.6-9.2,8.6-10.6,9C932.7,388.6,931,388.8,928.8,388.8z"/>
	</g>
	<g>
		<path d="M889.6,341.7c0.4-3.7,5.8-1.8,8.4-3.7c2.6-1.9,4.4-6,6.7-5.9c2.3,0,2.3,8.8-2.8,12.2S889.2,345.5,889.6,341.7z"/>
	</g>
	<g>
		<path d="M935.3,327.4c-2-3.1-5.1,1.8-8.3,1.3c-3.2-0.5-6.6-3.3-8.7-2.3s1.9,8.9,8,9.6C932.4,336.8,937.4,330.7,935.3,327.4z"/>
	</g>
	<g>
		<path d="M918.3,353.9c-10.7,4.5-7.3,15.2-5.4,16.7c2,1.5,3.4-7.9,9.5-9.7c6.1-1.7,10.6,2,12.3,0.6
			C936.5,360.1,931.1,348.5,918.3,353.9z"/>
	</g>
	<g>
		<path d="M878.6,375.1c-0.2,0-0.3,0-0.5,0c-0.7-0.1-1.9-0.5-2.7-2c-1.1-2.1-1.2-5.7-1.3-11c0-1,0-2.2-0.1-3.2
			c-1.6-0.1-4.1-0.1-5.7-0.1c-6.7,0-9.1-0.1-10.3-2.2c-0.5-1-0.5-2.2,0.2-3.2l0.2-0.2c5.5-6.7,12.9-11.6,18.2-14.5l2.8,5.1
			c-3.7,2-8.6,5.1-12.9,9.2c0.7,0,1.3,0,1.9,0c6.9,0,9.8,0.1,10.9,2.4c0.6,1.2,0.6,2.8,0.7,6.7c0,1.2,0,3.1,0.1,4.8
			c1.9-1.9,4.6-4.2,8.6-6.4l2.8,5.1c-4.5,2.5-7,5.2-8.7,7C881.5,373.9,880.3,375.1,878.6,375.1z"/>
	</g>
	<g>
		<path d="M1000.6,383.7c-6.1,0-13-1.5-20.1-5.9l3.1-5c13.8,8.5,26.9,4.4,33.4,1c-2.6-1.1-5.2-2.2-7-3.2c-6.7-3.7-7-4.7-7-6v-0.7
			l0.7-0.6c1.7-3.2,3-5.7,3.7-7.5c-3.6,1.1-6.7,0.7-9.5-0.9l3.1-5c0.7,0.4,3,1.8,8.4-1.2c1.2-0.8,2.7-0.9,3.8,0
			c1.1,0.8,3.4,2.6-2.9,15.1c2.7,1.7,8.1,4.8,13.6,6.3l0.3,0.1l1.8,0.9l0.1,1.8c0,1,0.1,2.4-5.3,5.5
			C1017.7,380,1010.2,383.7,1000.6,383.7z"/>
	</g>
</g>
<rect x="44.9" y="44.8" fill="none" stroke="#000000" stroke-miterlimit="10" width="200" height="200"/>
<rect x="244.9" y="44.8" fill="none" stroke="#000000" stroke-miterlimit="10" width="200" height="200"/>
<rect x="444.9" y="44.8" fill="none" stroke="#000000" stroke-miterlimit="10" width="200" height="200"/>
<rect x="645.2" y="44.8" fill="none" stroke="#000000" stroke-miterlimit="10" width="200" height="200"/>
<rect x="845.2" y="44.8" fill="none" stroke="#000000" stroke-miterlimit="10" width="200" height="200"/>
<rect x="44.7" y="244.8" fill="none" stroke="#000000" stroke-miterlimit="10" width="200" height="200"/>
<rect x="244.9" y="244.8" fill="none" stroke="#000000" stroke-miterlimit="10" width="200" height="200"/>
<rect x="444.9" y="244.8" fill="none" stroke="#000000" stroke-miterlimit="10" width="200" height="200"/>
<rect x="644.9" y="244.8" fill="none" stroke="#000000" stroke-miterlimit="10" width="200" height="200"/>
<rect x="845.2" y="244.8" fill="none" stroke="#000000" stroke-miterlimit="10" width="200" height="200"/>
<g>
	<path d="M387.9,361.3v-67.4c0-1,0-1.9-0.8-2.5c-0.7-0.6-1.3-0.9-2.3-0.7l-58.4,10.9c-1.5,0.3-2.6,1.6-2.6,3.2v59
		c-3.8-2.9-9-4.8-14.8-4.8c-11.7,0-21.2,7.5-21.2,16.7s9.5,16.7,21.2,16.7s21.2-7.5,21.2-16.7c0-1-0.1-2.1-0.4-3v-46.1l30.7-5.7
		c1.8-0.3,2.9-2,2.6-3.8c-0.3-1.8-2-2.9-3.8-2.6l-29.5,5.5v-12.4l52-9.7v12l-7.1,1.4c-1.8,0.4-2.9,2.1-2.6,3.8
		c0.3,1.6,1.7,2.6,3.2,2.6c0.2,0,0.4,0,0.6-0.1l5.8-1.2v36.6c-2-1.5-4.4-2.7-7.2-3.5c-2.4-0.7-4.9-1-7.4-1
		c-11.7,0-21.2,7.5-21.2,16.7s9.5,16.7,21.2,16.7s21.2-7.5,21.2-16.7C388.4,363.8,388.2,362.6,387.9,361.3z M309.1,385.8
		c-7.9,0-14.6-4.6-14.6-10.1s6.7-10.1,14.6-10.1c7.9,0,14.6,4.6,14.6,10.1S317,385.8,309.1,385.8z M367.3,375.3
		c-7.9,0-14.6-4.6-14.6-10.1s6.7-10.1,14.6-10.1c1.9,0,3.8,0.3,5.6,0.8c5.3,1.5,8.9,5.2,9,9v0.5
		C381.7,370.8,375.1,375.3,367.3,375.3z"/>
	<path d="M366.3,358c-6,0-10.8,3.3-10.8,7.6c0,0.7,0.6,1.3,1.3,1.3c0.7,0,1.3-0.6,1.3-1.3c0-2.7,3.7-4.9,8.1-4.9
		c0.7,0,1.3-0.6,1.3-1.3S367,358,366.3,358z"/>
	<path d="M308.8,368.2c-6,0-10.8,3.3-10.8,7.6c0,0.7,0.6,1.3,1.3,1.3c0.7,0,1.3-0.6,1.3-1.3c0-2.7,3.7-4.9,8.1-4.9
		c0.7,0,1.3-0.6,1.3-1.3S309.5,368.2,308.8,368.2z"/>
</g>
</svg>
