<?xml version="1.0" encoding="utf-8"?>
<!-- Generator: Adobe Illustrator 22.1.0, SVG Export Plug-In . SVG Version: 6.00 Build 0)  -->
<svg version="1.1" id="Layer_1" xmlns="http://www.w3.org/2000/svg" xmlns:xlink="http://www.w3.org/1999/xlink" x="0px" y="0px"
	 viewBox="0 0 615.7 244.6" style="enable-background:new 0 0 615.7 244.6;" xml:space="preserve">
<style type="text/css">
	.st0{enable-background:new    ;}
	.st1{fill:#FFFFFF;}
	.st2{fill:#6A2E81;}
	.st3{fill:#7ABA43;}
	.st4{fill:#19C4F9;}
</style>
<g>
	<g>
		<g>
			<g class="st0">
				<path class="st1" d="M300.9,112.8V61.1c0-0.7,0.3-1.3,0.9-1.7c0.6-0.4,1.3-0.6,2-0.6h27.4c0.7,0,1.3,0.3,1.7,0.8
					c0.4,0.6,0.6,1.2,0.6,2s-0.2,1.5-0.6,2.1s-1,0.9-1.6,0.9h-23.9v19.6h12c0.7,0,1.2,0.3,1.6,0.8s0.6,1.2,0.6,2
					c0,0.7-0.2,1.3-0.6,1.8s-0.9,0.8-1.7,0.8h-12v19.7h23.9c0.7,0,1.2,0.3,1.6,0.9s0.6,1.3,0.6,2.1c0,0.8-0.2,1.4-0.6,2
					s-0.9,0.8-1.7,0.8h-27.4c-0.8,0-1.5-0.2-2-0.6C301.2,114.1,300.9,113.5,300.9,112.8z"/>
				<path class="st1" d="M336.6,100.8v-7.9c0-4.1,1.4-7.5,4.1-10.4s6-4.4,9.7-4.4c2.3,0,4.3,0.6,6.1,1.7c1.7,1.1,3.1,2.6,4,4.2V58.8
					c0-0.7,0.3-1.2,0.9-1.6s1.4-0.6,2.3-0.6s1.7,0.2,2.3,0.6c0.6,0.4,0.9,0.9,0.9,1.6v54c0,0.6-0.3,1.2-0.9,1.6
					c-0.6,0.5-1.4,0.7-2.2,0.7c-0.8,0-1.5-0.2-2-0.7c-0.6-0.5-0.9-1-0.9-1.6v-3.1c-0.9,1.7-2.3,3.1-4.2,4.3c-2,1.2-4.1,1.8-6.4,1.8
					c-3.6,0-6.8-1.5-9.5-4.5C338,108.2,336.6,104.7,336.6,100.8z M343,100.8c0,2.4,0.9,4.5,2.6,6.3c1.7,1.9,3.8,2.8,6.1,2.8
					c2.3,0,4.3-0.9,6.1-2.6c1.8-1.7,2.7-3.2,2.7-4.5v-9.9c0-2.7-0.9-4.8-2.6-6.5s-3.8-2.5-6.1-2.5c-2.4,0-4.4,0.9-6.2,2.8
					c-1.7,1.8-2.6,3.9-2.6,6.2V100.8z"/>
				<path class="st1" d="M375.8,101V81c0-0.6,0.3-1.2,1-1.6c0.6-0.5,1.4-0.7,2.3-0.7c0.8,0,1.6,0.2,2.2,0.7s1,1,1,1.6v20
					c0,2.3,0.9,4.4,2.6,6.2c1.7,1.8,3.8,2.8,6.2,2.8c2.4,0,4.4-0.9,6.2-2.7c1.7-1.8,2.6-3.9,2.6-6.3V80.9c0-0.6,0.3-1.1,1-1.5
					c0.6-0.5,1.4-0.7,2.3-0.7s1.7,0.2,2.3,0.7c0.6,0.4,0.9,1,0.9,1.6v20.1c0,4-1.5,7.4-4.5,10.4s-6.6,4.4-10.7,4.4
					c-4.2,0-7.7-1.5-10.8-4.4C377.3,108.4,375.8,104.9,375.8,101z"/>
				<path class="st1" d="M413.7,100.8v-7.7c0-4.4,1.3-8,3.9-10.8s6.4-4.2,11.4-4.2c3.2,0,5.9,0.6,8.1,1.7s3.3,2.3,3.3,3.6
					c0,0.7-0.3,1.4-0.8,2.1s-1.2,1-1.9,1c-0.2,0-1.1-0.4-2.7-1.3s-3.4-1.3-5.5-1.3c-3.1,0-5.4,0.8-7,2.4s-2.4,3.8-2.4,6.7v7.7
					c0,6.1,3.2,9.1,9.5,9.1c2.2,0,4-0.4,5.6-1.3s2.5-1.3,2.8-1.3c0.8,0,1.5,0.3,2,1s0.8,1.4,0.8,2.1c0,1.3-1.1,2.5-3.4,3.7
					s-5,1.8-8.3,1.8c-5.1,0-8.9-1.4-11.5-4.1C415,108.9,413.7,105.3,413.7,100.8z"/>
				<path class="st1" d="M444.8,105.6c0-4,1.5-6.9,4.6-8.4c3.1-1.6,7.6-2.4,13.4-2.4h3.7v-1.6c0-2.6-0.7-4.8-2.1-6.8
					c-1.4-1.9-3.5-2.9-6.4-2.9c-2.2,0-4.1,0.4-5.7,1.2c-1.6,0.8-2.5,1.2-2.7,1.2c-0.7,0-1.3-0.3-1.7-1c-0.4-0.7-0.7-1.4-0.7-2.2
					c0-1.2,1.2-2.2,3.5-3.1s4.8-1.3,7.4-1.3c5,0,8.7,1.4,11.1,4.3s3.6,6.4,3.6,10.7V113c0,0.7-0.3,1.2-0.9,1.7
					c-0.6,0.4-1.3,0.7-2.3,0.7c-0.8,0-1.5-0.2-2.1-0.6s-0.8-1-0.8-1.6v-3c-3.5,3.9-7.4,5.9-11.6,5.9c-3.1,0-5.6-0.9-7.5-2.6
					C445.7,111.4,444.8,108.9,444.8,105.6z M451.2,104.9c0,1.9,0.5,3.4,1.6,4.4s2.5,1.5,4.3,1.5c2.2,0,4.3-0.9,6.3-2.6s3-3.5,3-5.3
					v-4.1h-2.7c-1.5,0-2.8,0-3.9,0.1s-2.2,0.2-3.4,0.5c-1.2,0.2-2.1,0.6-2.9,1c-0.7,0.4-1.3,1-1.8,1.8
					C451.5,102.9,451.2,103.8,451.2,104.9z"/>
				<path class="st1" d="M480.4,100.8v-7.7c0-4.4,1.3-8,3.9-10.8s6.4-4.2,11.4-4.2c3.2,0,5.9,0.6,8.1,1.7s3.3,2.3,3.3,3.6
					c0,0.7-0.3,1.4-0.8,2.1s-1.2,1-1.9,1c-0.2,0-1.1-0.4-2.7-1.3s-3.4-1.3-5.5-1.3c-3.1,0-5.4,0.8-7,2.4s-2.4,3.8-2.4,6.7v7.7
					c0,6.1,3.2,9.1,9.5,9.1c2.2,0,4-0.4,5.6-1.3s2.5-1.3,2.8-1.3c0.8,0,1.5,0.3,2,1s0.8,1.4,0.8,2.1c0,1.3-1.1,2.5-3.4,3.7
					s-5,1.8-8.3,1.8c-5.1,0-8.9-1.4-11.5-4.1C481.7,108.9,480.4,105.3,480.4,100.8z"/>
				<path class="st1" d="M514.2,67.5c-0.8-0.7-1.2-1.6-1.2-2.6s0.4-1.8,1.2-2.5s1.7-1.1,2.9-1.1c1.1,0,2,0.4,2.8,1.1
					s1.2,1.6,1.2,2.5c0,1-0.4,1.8-1.2,2.6c-0.8,0.7-1.7,1.1-2.8,1.1S515,68.2,514.2,67.5z M513.8,112.8v-32c0-0.7,0.3-1.2,0.9-1.6
					c0.6-0.4,1.4-0.6,2.2-0.6c0.9,0,1.7,0.2,2.3,0.6s0.9,1,0.9,1.6v32c0,0.6-0.3,1.1-1,1.6c-0.6,0.5-1.4,0.7-2.3,0.7
					c-0.9,0-1.6-0.2-2.2-0.7S513.8,113.4,513.8,112.8z"/>
				<path class="st1" d="M527.9,100.8v-7.9c0-4,1.5-7.4,4.5-10.4s6.6-4.4,10.7-4.4c4.1,0,7.7,1.5,10.7,4.4s4.5,6.4,4.5,10.4v7.9
					c0,3.9-1.5,7.4-4.6,10.4s-6.6,4.5-10.7,4.5c-4.1,0-7.6-1.5-10.6-4.5C529.5,108.2,527.9,104.8,527.9,100.8z M534.3,100.8
					c0,2.4,0.9,4.5,2.6,6.4c1.7,1.8,3.8,2.8,6.2,2.8s4.5-0.9,6.2-2.8s2.6-4,2.6-6.3v-7.8c0-2.3-0.9-4.4-2.6-6.2
					c-1.7-1.8-3.8-2.8-6.2-2.8s-4.5,0.9-6.2,2.8c-1.7,1.8-2.6,3.9-2.6,6.2V100.8z M536.8,67.5c0-0.8,0.3-1.3,1-1.7l9-4.8
					c0.3-0.1,0.6-0.2,0.8-0.2c0.6,0,1.1,0.3,1.5,0.8s0.6,1.1,0.6,1.8c0,0.9-0.4,1.5-1.1,1.8l-8.7,4.5c-0.4,0.2-0.7,0.3-0.8,0.3
					c-0.6,0-1.2-0.3-1.6-0.8C537,68.8,536.8,68.2,536.8,67.5z"/>
				<path class="st1" d="M566.1,112.8v-32c0-0.7,0.3-1.2,0.9-1.6c0.6-0.4,1.3-0.6,2.3-0.6c0.8,0,1.5,0.2,2,0.7
					c0.6,0.4,0.9,1,0.9,1.6v3.2c0.8-1.7,2.1-3.1,4-4.2c1.8-1.1,3.9-1.7,6.4-1.7c3.6,0,6.8,1.5,9.5,4.4s4,6.4,4,10.4v19.9
					c0,0.7-0.3,1.3-1,1.7c-0.6,0.4-1.4,0.6-2.3,0.6c-0.8,0-1.6-0.2-2.2-0.6c-0.6-0.4-1-1-1-1.7V93.1c0-2.3-0.9-4.4-2.6-6.2
					c-1.7-1.8-3.8-2.8-6.2-2.8c-2.2,0-4.2,0.8-5.9,2.5s-2.5,3.8-2.5,6.5v19.8c0,0.6-0.3,1.1-1,1.6s-1.4,0.7-2.2,0.7
					c-0.9,0-1.6-0.2-2.2-0.7S566.1,113.4,566.1,112.8z"/>
			</g>
			<g class="st0">
				<path class="st1" d="M297.6,178.5c0-4,1.5-6.9,4.6-8.4c3.1-1.6,7.6-2.4,13.4-2.4h3.7v-1.6c0-2.6-0.7-4.8-2.1-6.8
					c-1.4-1.9-3.5-2.9-6.4-2.9c-2.2,0-4.1,0.4-5.7,1.2c-1.6,0.8-2.5,1.2-2.7,1.2c-0.7,0-1.3-0.3-1.7-1c-0.4-0.7-0.7-1.4-0.7-2.2
					c0-1.2,1.2-2.2,3.5-3.1s4.8-1.3,7.4-1.3c5,0,8.7,1.4,11.1,4.3s3.6,6.4,3.6,10.7v19.7c0,0.7-0.3,1.2-0.9,1.7
					c-0.6,0.4-1.3,0.7-2.3,0.7c-0.8,0-1.5-0.2-2.1-0.6s-0.8-1-0.8-1.6v-3c-3.5,3.9-7.4,5.9-11.6,5.9c-3.1,0-5.6-0.9-7.5-2.6
					C298.5,184.3,297.6,181.8,297.6,178.5z M304,177.8c0,1.9,0.5,3.4,1.6,4.4s2.5,1.5,4.3,1.5c2.2,0,4.3-0.9,6.3-2.6s3-3.5,3-5.3
					v-4.1h-2.7c-1.5,0-2.8,0-3.9,0.1s-2.2,0.2-3.4,0.5c-1.2,0.2-2.1,0.6-2.9,1c-0.7,0.4-1.3,1-1.8,1.8
					C304.3,175.8,304,176.7,304,177.8z"/>
				<path class="st1" d="M333.2,173.7V166c0-4.4,1.3-8,3.9-10.8s6.4-4.2,11.4-4.2c3.2,0,5.9,0.6,8.1,1.7s3.3,2.3,3.3,3.6
					c0,0.7-0.3,1.4-0.8,2.1s-1.2,1-1.9,1c-0.2,0-1.1-0.4-2.7-1.3s-3.4-1.3-5.5-1.3c-3.1,0-5.4,0.8-7,2.4s-2.4,3.8-2.4,6.7v7.7
					c0,6.1,3.2,9.1,9.5,9.1c2.2,0,4-0.4,5.6-1.3s2.5-1.3,2.8-1.3c0.8,0,1.5,0.3,2,1s0.8,1.4,0.8,2.1c0,1.3-1.1,2.5-3.4,3.7
					s-5,1.8-8.3,1.8c-5.1,0-8.9-1.4-11.5-4.1C334.5,181.8,333.2,178.2,333.2,173.7z"/>
				<path class="st1" d="M364.9,173.7V166c0-4.4,1.3-8,3.9-10.8s6.4-4.2,11.4-4.2c3.2,0,5.9,0.6,8.1,1.7s3.3,2.3,3.3,3.6
					c0,0.7-0.3,1.4-0.8,2.1s-1.2,1-1.9,1c-0.2,0-1.1-0.4-2.7-1.3s-3.4-1.3-5.5-1.3c-3.1,0-5.4,0.8-7,2.4s-2.4,3.8-2.4,6.7v7.7
					c0,6.1,3.2,9.1,9.5,9.1c2.2,0,4-0.4,5.6-1.3s2.5-1.3,2.8-1.3c0.8,0,1.5,0.3,2,1s0.8,1.4,0.8,2.1c0,1.3-1.1,2.5-3.4,3.7
					s-5,1.8-8.3,1.8c-5.1,0-8.9-1.4-11.5-4.1C366.2,181.8,364.9,178.2,364.9,173.7z"/>
				<path class="st1" d="M396.6,173.7v-8.1c0-4,1.5-7.4,4.5-10.3s6.6-4.3,10.8-4.3c4,0,7.5,1.3,10.4,4s4.4,6,4.4,10.1
					c0,1.5-0.2,2.7-0.5,3.6c-0.4,0.9-0.9,1.6-1.7,1.9c-0.7,0.4-1.4,0.6-2.1,0.7c-0.6,0.1-1.5,0.2-2.6,0.2H403v2.3c0,2.8,1,5.1,3,6.8
					c2,1.7,4.7,2.5,7.9,2.5c1.7,0,3.2-0.3,4.4-0.8c1.3-0.5,2.3-1,3-1.5c0.8-0.5,1.4-0.7,1.9-0.7c0.7,0,1.3,0.3,1.8,1
					c0.5,0.6,0.8,1.3,0.8,2c0,1.2-1.2,2.4-3.5,3.6s-5.2,1.8-8.7,1.8c-5,0-9.1-1.4-12.3-4.1C398.2,181.8,396.6,178.2,396.6,173.7z
					 M403,167.2h14.3c1.3,0,2.2-0.2,2.7-0.5s0.7-1,0.7-2c0-2.3-0.8-4.3-2.5-6.1c-1.7-1.7-3.8-2.6-6.2-2.6c-2.4,0-4.5,0.8-6.2,2.4
					s-2.6,3.6-2.6,6v2.8H403z"/>
				<path class="st1" d="M431.6,182.8c0-0.7,0.2-1.3,0.7-2c0.4-0.6,1-1,1.6-1c0.4,0,1,0.3,1.8,1c0.8,0.6,1.9,1.3,3.3,1.9
					s3.1,0.9,5.1,0.9c2.6,0,4.4-0.5,5.6-1.4s1.7-2.1,1.7-3.5c0-1.7-0.6-3.1-1.9-4.1s-2.9-1.8-4.7-2.3c-1.8-0.5-3.7-1.1-5.5-1.7
					s-3.4-1.7-4.7-3.1c-1.3-1.5-1.9-3.4-1.9-5.8c0-2.9,1-5.4,3.1-7.5s5.3-3.2,9.5-3.2c2.7,0,5.2,0.4,7.5,1.2
					c2.3,0.8,3.4,1.8,3.4,2.8c0,0.6-0.2,1.3-0.7,2.1c-0.5,0.8-1.1,1.2-1.8,1.2c-0.2,0-1.2-0.4-3-1.1s-3.5-1.1-5.3-1.1
					c-2.4,0-4.1,0.6-5.3,1.7s-1.7,2.4-1.7,3.8c0,1.5,0.6,2.6,1.9,3.4s2.9,1.5,4.7,1.9c1.9,0.5,3.7,1,5.6,1.7
					c1.8,0.7,3.4,1.8,4.7,3.5c1.3,1.6,1.9,3.8,1.9,6.4c0,3.2-1.1,5.7-3.4,7.5s-5.4,2.7-9.5,2.7c-3.5,0-6.5-0.6-8.9-1.9
					C432.8,185.5,431.6,184.2,431.6,182.8z"/>
				<path class="st1" d="M464.4,140.3c-0.8-0.7-1.2-1.6-1.2-2.6s0.4-1.8,1.2-2.5c0.8-0.7,1.7-1.1,2.9-1.1c1.1,0,2,0.4,2.8,1.1
					s1.2,1.6,1.2,2.5c0,1-0.4,1.8-1.2,2.6c-0.8,0.7-1.7,1.1-2.8,1.1S465.2,141.1,464.4,140.3z M464,185.7v-32c0-0.7,0.3-1.2,0.9-1.6
					s1.4-0.6,2.2-0.6c0.9,0,1.7,0.2,2.3,0.6c0.6,0.4,0.9,1,0.9,1.6v32c0,0.6-0.3,1.1-1,1.6c-0.6,0.5-1.4,0.7-2.3,0.7
					s-1.6-0.2-2.2-0.7C464.4,186.9,464,186.3,464,185.7z"/>
				<path class="st1" d="M479.6,185.7v-54c0-0.7,0.3-1.2,0.9-1.6s1.3-0.6,2.3-0.6s1.7,0.2,2.3,0.6c0.6,0.4,0.9,1,0.9,1.6v25.2
					c0.9-1.7,2.3-3.1,4-4.2s3.8-1.7,6.1-1.7c3.8,0,7,1.5,9.7,4.4s4.1,6.4,4.1,10.4v7.9c0,3.9-1.4,7.4-4.1,10.4s-5.9,4.5-9.5,4.5
					c-2.3,0-4.4-0.6-6.4-1.8c-2-1.2-3.4-2.6-4.2-4.3v3.1c0,0.6-0.3,1.2-0.9,1.6c-0.6,0.5-1.3,0.7-2,0.7c-0.9,0-1.6-0.2-2.2-0.7
					C479.9,186.9,479.6,186.3,479.6,185.7z M486,175.7c0,1.3,0.9,2.8,2.7,4.5c1.8,1.7,3.8,2.6,6.1,2.6c2.3,0,4.3-0.9,6.1-2.8
					s2.6-4,2.6-6.3v-7.8c0-2.3-0.9-4.4-2.6-6.2s-3.8-2.8-6.2-2.8c-2.3,0-4.3,0.8-6.1,2.5c-1.7,1.7-2.6,3.8-2.6,6.5V175.7z"/>
				<path class="st1" d="M518.3,185.7v-54c0-0.7,0.3-1.2,0.9-1.6c0.6-0.4,1.3-0.6,2.3-0.6s1.7,0.2,2.3,0.6s0.9,1,0.9,1.6v54
					c0,0.6-0.3,1.1-1,1.6c-0.6,0.5-1.4,0.7-2.3,0.7c-0.9,0-1.6-0.2-2.2-0.7C518.6,186.9,518.3,186.3,518.3,185.7z"/>
				<path class="st1" d="M533.1,173.7v-8.1c0-4,1.5-7.4,4.5-10.3s6.6-4.3,10.8-4.3c4,0,7.5,1.3,10.4,4s4.4,6,4.4,10.1
					c0,1.5-0.2,2.7-0.5,3.6c-0.4,0.9-0.9,1.6-1.7,1.9c-0.7,0.4-1.4,0.6-2.1,0.7c-0.6,0.1-1.5,0.2-2.6,0.2h-16.9v2.3
					c0,2.8,1,5.1,3,6.8c2,1.7,4.7,2.5,7.9,2.5c1.7,0,3.2-0.3,4.4-0.8c1.3-0.5,2.3-1,3-1.5c0.8-0.5,1.4-0.7,1.9-0.7
					c0.7,0,1.3,0.3,1.8,1c0.5,0.6,0.8,1.3,0.8,2c0,1.2-1.2,2.4-3.5,3.6s-5.2,1.8-8.7,1.8c-5,0-9.1-1.4-12.3-4.1
					C534.7,181.8,533.1,178.2,533.1,173.7z M539.5,167.2h14.3c1.3,0,2.2-0.2,2.7-0.5s0.7-1,0.7-2c0-2.3-0.8-4.3-2.5-6.1
					c-1.7-1.7-3.8-2.6-6.2-2.6s-4.5,0.8-6.2,2.4s-2.6,3.6-2.6,6v2.8H539.5z"/>
			</g>
		</g>
	</g>
</g>
<g>
	<path class="st2" d="M121.1,241.3c-31.8,0-61.7-12.4-84.2-34.9C14.5,184,2.1,154.1,2.1,122.3s12.4-61.7,34.9-84.2
		C59.4,15.7,89.3,3.3,121.1,3.3s61.7,12.4,84.2,34.9c22.5,22.5,34.9,52.4,34.9,84.2s-12.4,61.7-34.9,84.2
		C182.8,228.9,152.9,241.3,121.1,241.3z"/>
</g>
<g>
	<g>
		<g>
			<g>
				<path class="st1" d="M52.2,102c1.1-10.7,10.2-19.1,21.1-19.1h95.8c11,0,20,8.4,21.1,19.1h8.8C198,86.5,185,74.2,169.2,74.2H73.4
					c-15.8,0-28.8,12.3-29.9,27.9H52.2z"/>
			</g>
			<g>
				<path class="st1" d="M190.4,156.9c-0.7,11.1-10,19.8-21.2,19.8H73.4c-11.2,0-20.5-8.8-21.2-19.8h-8.8
					c0.7,15.9,13.9,28.6,30,28.6h95.8c16.1,0,29.3-12.7,30-28.6H190.4z"/>
			</g>
		</g>
		<g>
			<g>
				<path class="st3" d="M79.2,107.5c6,0,11.2,2.2,15.6,6.6c4.3,4.4,6.5,9.7,6.5,16c0,6.2-2.1,11.5-6.4,15.8
					c-4.3,4.3-9.5,6.5-15.6,6.5c-6.4,0-11.7-2.2-16-6.6c-4.2-4.4-6.4-9.7-6.4-15.8c0-4.1,1-7.8,3-11.3c2-3.4,4.7-6.1,8.1-8.1
					C71.5,108.5,75.2,107.5,79.2,107.5z M79.1,115.4c-4,0-7.3,1.4-10,4.1c-2.7,2.7-4,6.2-4,10.5c0,4.7,1.7,8.5,5.1,11.2
					c2.6,2.1,5.7,3.2,9.1,3.2c3.9,0,7.1-1.4,9.8-4.2c2.7-2.8,4.1-6.2,4.1-10.3c0-4.1-1.4-7.5-4.1-10.3
					C86.4,116.8,83.1,115.4,79.1,115.4z"/>
			</g>
			<g>
				<path class="st1" d="M83.1,129.9c0,2.2-1.8,3.9-3.9,3.9c-2.2,0-3.9-1.8-3.9-3.9c0-2.2,1.8-3.9,3.9-3.9
					C81.3,126,83.1,127.7,83.1,129.9z"/>
			</g>
			<g>
				<path class="st3" d="M163.6,107.5c6,0,11.2,2.2,15.6,6.6c4.3,4.4,6.5,9.7,6.5,16c0,6.2-2.1,11.5-6.4,15.8
					c-4.3,4.3-9.5,6.5-15.6,6.5c-6.4,0-11.7-2.2-16-6.6c-4.2-4.4-6.4-9.7-6.4-15.8c0-4.1,1-7.8,3-11.3c2-3.4,4.7-6.1,8.1-8.1
					C155.9,108.5,159.6,107.5,163.6,107.5z M163.5,115.4c-4,0-7.3,1.4-10,4.1c-2.7,2.7-4,6.2-4,10.5c0,4.7,1.7,8.5,5.1,11.2
					c2.6,2.1,5.7,3.2,9.1,3.2c3.9,0,7.1-1.4,9.8-4.2c2.7-2.8,4.1-6.2,4.1-10.3c0-4.1-1.4-7.5-4.1-10.3S167.4,115.4,163.5,115.4z"/>
			</g>
			<g>
				<path class="st1" d="M167.5,129.9c0,2.2-1.8,3.9-3.9,3.9s-3.9-1.8-3.9-3.9c0-2.2,1.8-3.9,3.9-3.9S167.5,127.7,167.5,129.9z"/>
			</g>
		</g>
		<g>
			<g>
				<rect x="116.7" y="41.1" class="st1" width="8.8" height="39.5"/>
			</g>
		</g>
		<g>
			<g>
				<path class="st4" d="M135.5,43.8c0,7.9-6.4,14.2-14.2,14.2c-7.9,0-14.2-6.4-14.2-14.2c0-7.9,6.4-14.2,14.2-14.2
					C129.1,29.6,135.5,36,135.5,43.8z"/>
			</g>
		</g>
	</g>
	<g>
		<path class="st1" d="M121.1,241.3c-31.8,0-61.7-12.4-84.2-34.9C14.5,184,2.1,154.1,2.1,122.3s12.4-61.7,34.9-84.2
			C59.4,15.7,89.3,3.3,121.1,3.3s61.7,12.4,84.2,34.9c22.5,22.5,34.9,52.4,34.9,84.2s-12.4,61.7-34.9,84.2
			C182.8,228.9,152.9,241.3,121.1,241.3z M121.1,12.1c-60.8,0-110.2,49.5-110.2,110.2s49.5,110.2,110.2,110.2
			s110.2-49.5,110.2-110.2S181.9,12.1,121.1,12.1z"/>
	</g>
</g>
</svg>
